<svg xmlns="http://www.w3.org/2000/svg" width="19.505" height="9.327" viewBox="0 0 19.505 9.327">
  <path id="Контур_4897" data-name="Контур 4897" d="M15.63,12.395a1.6,1.6,0,0,0,.378-1.16,1.628,1.628,0,0,0-1.07.551,1.512,1.512,0,0,0-.384,1.124A1.345,1.345,0,0,0,15.63,12.395Zm1.052,2.7a1.648,1.648,0,0,1,.786-1.385,1.7,1.7,0,0,0-1.329-.719c-.566-.056-1.105.333-1.391.333s-.729-.325-1.2-.315a1.778,1.778,0,0,0-1.5.911,3.787,3.787,0,0,0,.462,3.662c.305.441.669.937,1.148.919.461-.018.634-.3,1.19-.3s.713.3,1.2.289.809-.451,1.113-.894a3.957,3.957,0,0,0,.5-1.032A1.612,1.612,0,0,1,16.682,15.1Zm5.9-2.7a1.851,1.851,0,0,0-.708-.412,3.213,3.213,0,0,0-1.008-.142,6.593,6.593,0,0,0-.741.038q-.308.034-.613.086l-.06.01v6.471h.591V15.721a4.054,4.054,0,0,0,.678.052,3.285,3.285,0,0,0,.931-.127,2.081,2.081,0,0,0,.746-.389,1.883,1.883,0,0,0,.5-.648,2.091,2.091,0,0,0,.182-.9,2.026,2.026,0,0,0-.131-.75A1.716,1.716,0,0,0,22.578,12.395Zm-.543,2.472a1.939,1.939,0,0,1-1.277.383c-.15,0-.292-.007-.422-.019a1.977,1.977,0,0,1-.3-.05V12.429c.078-.014.175-.028.288-.04a4.961,4.961,0,0,1,.516-.023,2.458,2.458,0,0,1,.675.088,1.554,1.554,0,0,1,.519.254,1.1,1.1,0,0,1,.33.425,1.51,1.51,0,0,1,.117.618,1.384,1.384,0,0,1-.45,1.116Zm4.572,2.975c-.007-.183-.009-.367-.009-.55v-1.8a3.39,3.39,0,0,0-.064-.647,1.641,1.641,0,0,0-.245-.6,1.37,1.37,0,0,0-.5-.442,1.714,1.714,0,0,0-.813-.17,2.591,2.591,0,0,0-.7.093,2.212,2.212,0,0,0-.652.31l-.048.033.2.467.072-.049a1.931,1.931,0,0,1,.511-.243,1.911,1.911,0,0,1,.567-.087,1.1,1.1,0,0,1,.583.133.883.883,0,0,1,.319.328,1.248,1.248,0,0,1,.14.421,2.85,2.85,0,0,1,.033.407V15.5a3.746,3.746,0,0,0-2.014.434,1.468,1.468,0,0,0-.718,1.3,1.43,1.43,0,0,0,.085.479,1.239,1.239,0,0,0,.257.428,1.265,1.265,0,0,0,.438.3,1.535,1.535,0,0,0,.614.115A1.719,1.719,0,0,0,25.6,18.3a1.785,1.785,0,0,0,.322-.252q.059-.059.112-.124h.023l.054.525h.57l-.016-.084a3.626,3.626,0,0,1-.056-.522Zm-.6-.922a1.021,1.021,0,0,1-.044.253,1.293,1.293,0,0,1-.159.316,1.214,1.214,0,0,1-.619.467,1.445,1.445,0,0,1-.474.072.938.938,0,0,1-.311-.053.751.751,0,0,1-.262-.157.78.78,0,0,1-.184-.266,1,1,0,0,1-.07-.395.887.887,0,0,1,.2-.609,1.326,1.326,0,0,1,.527-.357,2.7,2.7,0,0,1,.712-.162,6.482,6.482,0,0,1,.682-.03Zm4.609-3.184-1.1,3c-.069.181-.133.363-.192.541-.029.089-.056.173-.082.252h-.021q-.041-.131-.084-.262c-.057-.176-.119-.348-.182-.513l-1.179-3.016h-.63l1.687,4.336a.5.5,0,0,1,.051.172.661.661,0,0,1-.052.173,3.144,3.144,0,0,1-.358.665,3.941,3.941,0,0,1-.369.444,2.016,2.016,0,0,1-.395.313,3.778,3.778,0,0,1-.374.2l-.064.029.205.5.065-.024c.053-.02.154-.066.306-.14a2.334,2.334,0,0,0,.506-.359,2.616,2.616,0,0,0,.426-.479,5.877,5.877,0,0,0,.371-.622c.121-.233.242-.5.36-.787s.245-.617.375-.967l1.362-3.449Z" transform="translate(-11.743 -11.235)"/>
</svg>
