<svg xmlns="http://www.w3.org/2000/svg" width="18" height="18" viewBox="0 0 18 18">
  <g id="Icone_Billing" data-name="Icone Billing" transform="translate(-417.78 -462)">
    <path id="Login_in_-_1" data-name="Login (in) - 1" d="M4.514,7.145a3.323,3.323,0,0,1-1.64-3.826,3.288,3.288,0,0,1,6.285-.171,3.33,3.33,0,0,1-1.588,4,5.167,5.167,0,0,1,1.373.683,4.985,4.985,0,0,1,2.085,3.249,3.084,3.084,0,0,1,.064.448.373.373,0,0,1-.744.041A4.324,4.324,0,0,0,8.865,8.718,4.163,4.163,0,0,0,6.789,7.74a4.194,4.194,0,0,0-3.314.783,4.171,4.171,0,0,0-1.667,2.658c-.025.132-.05.263-.067.4a.366.366,0,0,1-.388.335A.349.349,0,0,1,1,11.54a6.294,6.294,0,0,1,.221-1.1,5.069,5.069,0,0,1,3.293-3.3Zm1.533-.387A2.539,2.539,0,1,0,4.233,6a2.539,2.539,0,0,0,1.814.758Z" transform="translate(420.756 465.856)" fill="red" stroke="red" stroke-miterlimit="10" stroke-width="1"/>
    <g id="Ellipse_13" data-name="Ellipse 13" transform="translate(417.78 462)" fill="none" stroke="red" stroke-width="1.5">
      <circle cx="9" cy="9" r="9" stroke="none"/>
      <circle cx="9" cy="9" r="8.25" fill="none"/>
    </g>
  </g>
</svg>
