<svg id="Сгруппировать_963" data-name="Сгруппировать 963" xmlns="http://www.w3.org/2000/svg" width="15" height="12" viewBox="0 0 15 12">
  <path id="Контур_6934" data-name="Контур 6934" d="M13.207,49.191H11.641l-.864-1.3A1.8,1.8,0,0,0,9.293,47.1H5.707a1.8,1.8,0,0,0-1.484.783l-.864,1.3H1.793A1.788,1.788,0,0,0,0,50.984v6.326A1.788,1.788,0,0,0,1.793,59.1H13.207A1.788,1.788,0,0,0,15,57.311V50.984A1.788,1.788,0,0,0,13.207,49.191ZM7.5,57.637a4.035,4.035,0,1,1,4.043-4.027A4.043,4.043,0,0,1,7.5,57.637Zm5.478-5.918h-.717a.53.53,0,0,1,0-1.06h.652a.529.529,0,0,1,.554.505A.516.516,0,0,1,12.978,51.718Z" transform="translate(0 -47.104)" fill="red"/>
  <path id="Контур_6935" data-name="Контур 6935" d="M167.114,180.736a2.242,2.242,0,1,0,2.25,2.234A2.254,2.254,0,0,0,167.114,180.736Z" transform="translate(-159.614 -176.481)" fill="red"/>
</svg>
