<svg xmlns="http://www.w3.org/2000/svg" width="19" height="12.294" viewBox="0 0 19 12.294">
  <g id="Сгруппировать_688" data-name="Сгруппировать 688" transform="translate(-1.091 -21.328)">
    <path id="Контур_5176" data-name="Контур 5176" d="M18.011,21.328H3.248a2.145,2.145,0,0,0-2.157,2.1v5.584h19V23.428A2.078,2.078,0,0,0,18.011,21.328ZM6.25,27.11a1.525,1.525,0,0,1-1.061-.429,1.532,1.532,0,1,1,0-2.208A1.532,1.532,0,1,1,6.25,27.11Z" transform="translate(0 0)" fill="red"/>
    <path id="Контур_5177" data-name="Контур 5177" d="M1.091,40.456a2.155,2.155,0,0,0,2.157,2.112H18.011a2.089,2.089,0,0,0,2.08-2.112v-.124h-19Z" transform="translate(0 -8.946)" fill="red"/>
  </g>
</svg>
