<svg id="BrandBook_Unlim-01-02" data-name="BrandBook Unlim-01-02" xmlns="http://www.w3.org/2000/svg" width="59.172" height="14.042" viewBox="0 0 59.172 14.042">
  <path id="Контур_2" data-name="Контур 2" d="M171.988,31.849c.439-1.663.854-3.279,1.27-4.872.208-.785-.046-1.108-.854-1.132-1.039-.023-1.039-.023-1.316.993-.393,1.524-.808,3.048-1.2,4.572a.605.605,0,0,1-.67.554q-1.663-.035-3.325,0c-.369,0-.485-.115-.393-.508.624-2.286,1.224-4.572,1.824-6.858a.758.758,0,0,1,.67-.623,21.383,21.383,0,0,1,5.819-.416,15.156,15.156,0,0,1,2.032.439,1.751,1.751,0,0,0,.9.069,13.012,13.012,0,0,1,4.526-.508,5.862,5.862,0,0,1,1.663.3,1.928,1.928,0,0,1,1.385,2.632l-1.247,4.849a.719.719,0,0,1-.854.647c-1.178-.046-2.355-.023-3.672-.023.208-.831.393-1.593.577-2.332.231-.877.462-1.732.693-2.609.208-.785-.092-1.155-.9-1.155-.993-.023-1.039.023-1.293.97-.416,1.547-.808,3.094-1.247,4.618-.069.208-.323.485-.508.485-1.224.046-2.448.023-3.648.023C172.2,31.918,172.126,31.872,171.988,31.849Z" transform="translate(-127.267 -18.086)" fill="red"/>
  <path id="Контур_3" data-name="Контур 3" d="M59.758,31.731c.208-.808.369-1.524.554-2.24.254-.993.531-1.986.785-2.979a.635.635,0,0,0-.023-.416c-.346-.623-.947-.439-1.478-.462-.416,0-.554.3-.647.623-.416,1.57-.831,3.141-1.224,4.734-.139.531-.323.785-.924.739-.993-.046-1.986-.023-2.979-.023H53.2c.254-.97.462-1.847.693-2.725.393-1.5.808-3,1.2-4.5a.932.932,0,0,1,.808-.762A24.7,24.7,0,0,1,62.16,23.3a7.729,7.729,0,0,1,2.148.439,1.788,1.788,0,0,1,1.293,2.4c-.416,1.686-.878,3.371-1.339,5.034-.046.185-.277.485-.416.485C62.483,31.754,61.19,31.731,59.758,31.731Z" transform="translate(-40.923 -17.899)" fill="red"/>
  <path id="Контур_4" data-name="Контур 4" d="M5.868,24.2c-.346,1.316-.647,2.494-.947,3.649-.115.462-.254.924-.369,1.386-.162.647.115.97.785,1.016,1.016.046,1.062.023,1.316-.97.393-1.5.808-3,1.2-4.5a.624.624,0,0,1,.693-.554h3.21c.416,0,.6.092.462.6-.6,2.171-1.178,4.341-1.709,6.535-.208.854-.854.9-1.455.97-1.616.162-3.21.3-4.826.323a9.226,9.226,0,0,1-2.378-.323,2.1,2.1,0,0,1-1.686-2.91c.393-1.524.808-3.048,1.2-4.572a.7.7,0,0,1,.808-.623C3.351,24.223,4.552,24.2,5.868,24.2Z" transform="translate(-0.034 -18.612)" fill="red"/>
  <path id="Контур_5" data-name="Контур 5" d="M117.147,8c-.208.808-.369,1.524-.554,2.263-.808,3.025-1.616,6.05-2.4,9.1-.115.485-.323.67-.831.647-1.062-.046-2.1-.023-3.164,0-.439,0-.508-.162-.416-.531.97-3.625,1.917-7.274,2.886-10.9.046-.208.277-.508.439-.531C114.423,8,115.739,8,117.147,8Z" transform="translate(-84.411 -6.153)" fill="red"/>
  <path id="Контур_6" data-name="Контур 6" d="M144.12,24.286c-.346,1.339-.67,2.609-.993,3.879-.323,1.247-.67,2.471-.993,3.718a.607.607,0,0,1-.716.554c-1.062-.023-2.148-.023-3.21,0-.416,0-.554-.092-.439-.554.647-2.355,1.247-4.711,1.847-7.066a.7.7,0,0,1,.808-.623c1.039.023,2.078,0,3.094,0C143.7,24.217,143.866,24.24,144.12,24.286Z" transform="translate(-105.934 -18.605)" fill="red"/>
  <g id="Сгруппировать_35" data-name="Сгруппировать 35" transform="translate(34.522 0)">
    <path id="Контур_7" data-name="Контур 7" d="M219.559,3.625h-3.371c-.808,0-.97-.254-.762-1.039.162-.554.323-1.132.485-1.686a1.062,1.062,0,0,1,1.155-.9h6.974c.67,0,.878.3.693.947-.162.6-.346,1.2-.531,1.8a1.058,1.058,0,0,1-1.178.877Z" transform="translate(-200.146 0)" fill="red"/>
    <path id="Контур_8" data-name="Контур 8" d="M180.639,7.009h-2.494c-.577,0-.739-.208-.6-.762.092-.369.185-.739.3-1.108a.9.9,0,0,1,.947-.739h5.08c.577,0,.716.185.577.739-.092.393-.208.785-.3,1.178a.889.889,0,0,1-.97.716C182.325,7.009,181.493,7.009,180.639,7.009Z" transform="translate(-171.04 -3.384)" fill="red"/>
    <path id="Контур_9" data-name="Контур 9" d="M152.088,7.677h1.5c.416,0,.693.115.508.647-.092.231-.069.508-.208.67a1.147,1.147,0,0,1-.693.508c-1.039.046-2.1.023-3.164.023q-.589,0-.485-.554c.254-1.178.323-1.339,1.362-1.293C151.326,7.7,151.719,7.677,152.088,7.677Z" transform="translate(-149.533 -5.899)" fill="red"/>
  </g>
</svg>
