<svg xmlns="http://www.w3.org/2000/svg" xmlns:xlink="http://www.w3.org/1999/xlink" width="12.301" height="12.5" viewBox="0 0 12.301 12.5">
  <defs>
    <clipPath id="clip-path">
      <rect id="SVGID" width="11.801" height="12" rx="1" fill="red"/>
    </clipPath>
  </defs>
  <g id="eSim" transform="translate(0.25 0.25)">
    <rect id="Прямоугольник_2075" data-name="Прямоугольник 2075" width="11.801" height="12" rx="1" fill="none" stroke="red" stroke-linejoin="round" stroke-width="0.5"/>
    <path id="Контур_5126" data-name="Контур 5126" d="M-603.5,521.92h5.369l1.648,1.648v5.369H-603.5Z" transform="translate(605.98 -519.428)" fill="red"/>
    <g id="Сгруппировать_573" data-name="Сгруппировать 573" transform="translate(0.084)">
      <g id="Сгруппировать_572" data-name="Сгруппировать 572" clip-path="url(#clip-path)">
        <g id="Сгруппировать_570" data-name="Сгруппировать 570" transform="translate(-3.852 2.492)">
          <path id="Контур_5127" data-name="Контур 5127" d="M-620.633,522.676h-4.811a.378.378,0,0,1-.378-.378.378.378,0,0,1,.378-.378h4.811a.378.378,0,0,1,.378.378A.378.378,0,0,1-620.633,522.676Z" transform="translate(625.822 -521.92)" fill="red"/>
          <path id="Контур_5128" data-name="Контур 5128" d="M-620.633,530.034h-4.811a.378.378,0,0,1-.378-.378.378.378,0,0,1,.378-.378h4.811a.378.378,0,0,1,.378.378A.378.378,0,0,1-620.633,530.034Z" transform="translate(625.822 -527.22)" fill="red"/>
          <path id="Контур_5129" data-name="Контур 5129" d="M-620.633,537.391h-4.811a.378.378,0,0,1-.378-.378.378.378,0,0,1,.378-.378h4.811a.378.378,0,0,1,.378.378A.378.378,0,0,1-620.633,537.391Z" transform="translate(625.822 -532.518)" fill="red"/>
          <path id="Контур_5130" data-name="Контур 5130" d="M-620.633,544.749h-4.811a.378.378,0,0,1-.378-.378.378.378,0,0,1,.378-.378h4.811a.378.378,0,0,1,.378.378A.378.378,0,0,1-620.633,544.749Z" transform="translate(625.822 -537.818)" fill="red"/>
        </g>
        <g id="Сгруппировать_571" data-name="Сгруппировать 571" transform="translate(10.136 2.492)">
          <path id="Контур_5131" data-name="Контур 5131" d="M-570.633,522.676h-4.811a.378.378,0,0,1-.378-.378.378.378,0,0,1,.378-.378h4.811a.378.378,0,0,1,.378.378A.378.378,0,0,1-570.633,522.676Z" transform="translate(575.822 -521.92)" fill="red"/>
          <path id="Контур_5132" data-name="Контур 5132" d="M-570.633,530.034h-4.811a.378.378,0,0,1-.378-.378.378.378,0,0,1,.378-.378h4.811a.378.378,0,0,1,.378.378A.378.378,0,0,1-570.633,530.034Z" transform="translate(575.822 -527.22)" fill="red"/>
          <path id="Контур_5133" data-name="Контур 5133" d="M-570.633,537.391h-4.811a.378.378,0,0,1-.378-.378.378.378,0,0,1,.378-.378h4.811a.378.378,0,0,1,.378.378A.378.378,0,0,1-570.633,537.391Z" transform="translate(575.822 -532.518)" fill="red"/>
          <path id="Контур_5134" data-name="Контур 5134" d="M-570.633,544.749h-4.811a.378.378,0,0,1-.378-.378.378.378,0,0,1,.378-.378h4.811a.378.378,0,0,1,.378.378A.378.378,0,0,1-570.633,544.749Z" transform="translate(575.822 -537.818)" fill="red"/>
        </g>
      </g>
    </g>
  </g>
</svg>
