<svg xmlns="http://www.w3.org/2000/svg" width="21.722" height="8.617" viewBox="0 0 21.722 8.617">
  <g id="GPAY---SVGs" transform="translate(0 0)">
    <g id="GPay-Brand-Mark" transform="translate(0 0)">
      <g id="GPay" transform="translate(0 0)">
        <g id="Pay" transform="translate(9.472 0.499)">
          <path id="Fill-1" d="M-213.364-211.36v2.177h1.343a1.061,1.061,0,0,0,.794-.322,1.046,1.046,0,0,0,.322-.767,1.037,1.037,0,0,0-.322-.758,1.048,1.048,0,0,0-.794-.331h-1.343Zm0,2.944v2.526h-.8v-6.237h2.128a1.923,1.923,0,0,1,1.377.54,1.733,1.733,0,0,1,.576,1.315,1.725,1.725,0,0,1-.576,1.324,1.919,1.919,0,0,1-1.377.531h-1.326Z" transform="translate(214.166 212.127)" fill="#5f6368"/>
          <path id="Fill-3" d="M-146.668-179.009a.639.639,0,0,0,.266.523.981.981,0,0,0,.623.209,1.279,1.279,0,0,0,.9-.374,1.172,1.172,0,0,0,.4-.879,1.647,1.647,0,0,0-1.046-.3,1.359,1.359,0,0,0-.815.235.7.7,0,0,0-.327.583m1.038-3.1a1.99,1.99,0,0,1,1.4.475,1.683,1.683,0,0,1,.514,1.3v2.631h-.767v-.592h-.035a1.53,1.53,0,0,1-1.325.731,1.724,1.724,0,0,1-1.182-.418,1.335,1.335,0,0,1-.475-1.046,1.267,1.267,0,0,1,.5-1.053,2.116,2.116,0,0,1,1.338-.392,2.372,2.372,0,0,1,1.177.261v-.183a.912.912,0,0,0-.331-.71,1.136,1.136,0,0,0-.776-.292,1.228,1.228,0,0,0-1.064.566l-.707-.445a1.971,1.971,0,0,1,1.727-.836" transform="translate(151.559 183.939)" fill="#5f6368"/>
          <g id="Group-7" transform="translate(7.978 1.969)">
            <path id="Fill-5" d="M-94.069-183.583l-2.677,6.149h-.828l.994-2.151-1.761-4h.872l1.273,3.066h.017l1.238-3.066Z" transform="translate(98.342 183.583)" fill="#5f6368"/>
          </g>
        </g>
        <g id="G" transform="translate(0 0)">
          <path id="Fill-8" d="M-289.663-170.578a4.261,4.261,0,0,0-.062-.729h-3.383v1.38h1.938a1.658,1.658,0,0,1-.716,1.089v.9h1.156a3.5,3.5,0,0,0,1.067-2.637" transform="translate(296.695 174.243)" fill="#4285f4"/>
          <path id="Fill-10" d="M-342.5-146.536a3.434,3.434,0,0,0,2.378-.866l-1.156-.9a2.163,2.163,0,0,1-1.221.343,2.146,2.146,0,0,1-2.014-1.479H-345.7v.923a3.588,3.588,0,0,0,3.205,1.975" transform="translate(346.085 153.703)" fill="#34a853"/>
          <path id="Fill-12" d="M-350.4-184.8a2.154,2.154,0,0,1-.112-.686,2.153,2.153,0,0,1,.112-.686v-.923h-1.191a3.563,3.563,0,0,0-.382,1.609,3.561,3.561,0,0,0,.382,1.609Z" transform="translate(351.972 189.066)" fill="#fabb05"/>
          <path id="Fill-14" d="M-342.5-218.071a1.948,1.948,0,0,1,1.376.537h0l1.024-1.023a3.449,3.449,0,0,0-2.4-.934,3.587,3.587,0,0,0-3.205,1.974l1.191.923a2.145,2.145,0,0,1,2.014-1.479" transform="translate(346.085 219.489)" fill="#e94235"/>
        </g>
      </g>
    </g>
  </g>
</svg>
