<svg xmlns="http://www.w3.org/2000/svg" width="12.503" height="18.001" viewBox="0 0 12.503 18.001">
  <path id="Path_5184" data-name="Path 5184" d="M-1675.93-453.284a6.332,6.332,0,0,0-1.792-4.507,6.332,6.332,0,0,0-4.456-1.917,6.337,6.337,0,0,0-6.253,6.424,6.51,6.51,0,0,0,1.06,3.577h.015l5.178,8,5.2-8h-.01a6.471,6.471,0,0,0,1.058-3.577Zm-6.248,3.577a3.537,3.537,0,0,1-3.486-3.577,3.53,3.53,0,0,1,3.486-3.576,3.526,3.526,0,0,1,2.485,1.065,3.526,3.526,0,0,1,1,2.512,3.534,3.534,0,0,1-3.488,3.577Z" transform="translate(1688.432 459.708)" fill="red"/>
</svg>
