<svg id="BrandBook_Unlim-01-02" data-name="BrandBook Unlim-01-02" xmlns="http://www.w3.org/2000/svg" width="58.965" height="13.993" viewBox="0 0 58.965 13.993">
  <path id="Контур_2" data-name="Контур 2" d="M171.965,31.82c.437-1.657.851-3.268,1.266-4.855.207-.782-.046-1.1-.851-1.128-1.035-.023-1.035-.023-1.312.989-.391,1.519-.805,3.037-1.2,4.556a.6.6,0,0,1-.667.552q-1.657-.035-3.314,0c-.368,0-.483-.115-.391-.506.621-2.278,1.22-4.556,1.818-6.834a.755.755,0,0,1,.667-.621,21.308,21.308,0,0,1,5.8-.414,15.1,15.1,0,0,1,2.025.437,1.745,1.745,0,0,0,.9.069,12.966,12.966,0,0,1,4.51-.506,5.841,5.841,0,0,1,1.657.3,1.921,1.921,0,0,1,1.381,2.623l-1.243,4.832a.717.717,0,0,1-.851.644c-1.174-.046-2.347-.023-3.659-.023.207-.828.391-1.588.575-2.324.23-.874.46-1.726.69-2.6.207-.782-.092-1.151-.9-1.151-.99-.023-1.036.023-1.289.966-.414,1.542-.805,3.084-1.243,4.6-.069.207-.322.483-.506.483-1.22.046-2.439.023-3.636.023C172.172,31.889,172.1,31.843,171.965,31.82Z" transform="translate(-127.4 -18.105)" fill="red"/>
  <path id="Контур_3" data-name="Контур 3" d="M59.735,31.7c.207-.805.368-1.519.552-2.232.253-.989.529-1.979.782-2.968a.633.633,0,0,0-.023-.414c-.345-.621-.943-.437-1.473-.46-.414,0-.552.3-.644.621-.414,1.565-.828,3.13-1.22,4.717-.138.529-.322.782-.92.736-.989-.046-1.979-.023-2.968-.023H53.2c.253-.966.46-1.841.69-2.715.391-1.5.805-2.991,1.2-4.487a.929.929,0,0,1,.805-.759,24.613,24.613,0,0,1,6.236-.414,7.7,7.7,0,0,1,2.14.437,1.782,1.782,0,0,1,1.289,2.393c-.414,1.68-.874,3.36-1.335,5.016-.046.184-.276.483-.414.483C62.451,31.725,61.162,31.7,59.735,31.7Z" transform="translate(-40.966 -17.918)" fill="red"/>
  <path id="Контур_4" data-name="Контур 4" d="M5.848,24.2C5.5,25.512,5.2,26.685,4.9,27.836c-.115.46-.253.92-.368,1.381-.161.644.115.966.782,1.012,1.012.046,1.059.023,1.312-.966.391-1.5.805-2.991,1.2-4.487a.621.621,0,0,1,.69-.552h3.2c.414,0,.6.092.46.6-.6,2.163-1.174,4.326-1.7,6.512-.207.851-.851.9-1.45.966-1.611.161-3.2.3-4.809.322a9.194,9.194,0,0,1-2.37-.322,2.091,2.091,0,0,1-1.68-2.9c.391-1.519.805-3.037,1.2-4.556a.692.692,0,0,1,.805-.621C3.339,24.223,4.536,24.2,5.848,24.2Z" transform="translate(-0.034 -18.631)" fill="red"/>
  <path id="Контур_5" data-name="Контур 5" d="M117.121,8c-.207.805-.368,1.519-.552,2.255-.805,3.014-1.611,6.029-2.393,9.066-.115.483-.322.667-.828.644-1.059-.046-2.094-.023-3.153,0-.437,0-.506-.161-.414-.529.966-3.613,1.91-7.249,2.876-10.861.046-.207.276-.506.437-.529C114.406,8,115.718,8,117.121,8Z" transform="translate(-84.499 -6.159)" fill="red"/>
  <path id="Контур_6" data-name="Контур 6" d="M144.1,24.286c-.345,1.335-.667,2.6-.989,3.866-.322,1.243-.667,2.462-.989,3.7a.6.6,0,0,1-.713.552c-1.059-.023-2.14-.023-3.2,0-.414,0-.552-.092-.437-.552.644-2.347,1.243-4.694,1.841-7.041a.692.692,0,0,1,.805-.621c1.036.023,2.071,0,3.083,0C143.684,24.217,143.845,24.24,144.1,24.286Z" transform="translate(-106.045 -18.625)" fill="red"/>
  <g id="Сгруппировать_35" data-name="Сгруппировать 35" transform="translate(34.402 0)">
    <path id="Контур_7" data-name="Контур 7" d="M219.545,3.613h-3.36c-.805,0-.966-.253-.759-1.036.161-.552.322-1.128.483-1.68a1.059,1.059,0,0,1,1.151-.9h6.949c.667,0,.874.3.69.943-.161.6-.345,1.2-.529,1.795A1.055,1.055,0,0,1,223,3.613Z" transform="translate(-200.2 0)"/>
    <path id="Контур_8" data-name="Контур 8" d="M180.628,7h-2.485c-.575,0-.736-.207-.6-.759.092-.368.184-.736.3-1.1a.9.9,0,0,1,.943-.736h5.062c.575,0,.713.184.575.736-.092.391-.207.782-.3,1.174a.886.886,0,0,1-.966.713C182.308,7,181.479,7,180.628,7Z" transform="translate(-171.063 -3.388)"/>
    <path id="Контур_9" data-name="Контур 9" d="M152.079,7.677h1.5c.414,0,.69.115.506.644-.092.23-.069.506-.207.667a1.143,1.143,0,0,1-.69.506c-1.036.046-2.094.023-3.153.023q-.587,0-.483-.552c.253-1.174.322-1.335,1.358-1.289C151.32,7.7,151.711,7.677,152.079,7.677Z" transform="translate(-149.533 -5.905)"/>
  </g>
</svg>
