<svg id="BrandBook_Unlim-01-02" data-name="BrandBook Unlim-01-02" xmlns="http://www.w3.org/2000/svg" width="55.881" height="13.261" viewBox="0 0 55.881 13.261">
  <path id="Контур_2" data-name="Контур 2" d="M171.625,31.386c.414-1.57.807-3.1,1.2-4.6.2-.741-.044-1.047-.807-1.069-.981-.022-.981-.022-1.243.938-.371,1.439-.763,2.879-1.134,4.318a.572.572,0,0,1-.632.523q-1.57-.033-3.14,0c-.349,0-.458-.109-.371-.48.589-2.159,1.156-4.318,1.723-6.477a.715.715,0,0,1,.632-.589,20.194,20.194,0,0,1,5.5-.393,14.315,14.315,0,0,1,1.919.414,1.653,1.653,0,0,0,.85.065,12.288,12.288,0,0,1,4.274-.48,5.536,5.536,0,0,1,1.57.283,1.821,1.821,0,0,1,1.308,2.486l-1.178,4.58a.679.679,0,0,1-.807.611c-1.112-.044-2.224-.022-3.467-.022.2-.785.371-1.5.545-2.2.218-.829.436-1.636.654-2.464.2-.741-.087-1.09-.85-1.09-.938-.022-.981.022-1.221.916-.393,1.461-.763,2.922-1.178,4.362-.065.2-.305.458-.48.458-1.156.044-2.312.022-3.446.022C171.822,31.451,171.756,31.408,171.625,31.386Z" transform="translate(-129.391 -18.388)"/>
  <path id="Контур_3" data-name="Контур 3" d="M59.393,31.261c.2-.763.349-1.439.523-2.115.24-.938.5-1.875.741-2.813a.6.6,0,0,0-.022-.393c-.327-.589-.894-.414-1.4-.436-.393,0-.523.284-.611.589-.393,1.483-.785,2.966-1.156,4.471-.131.5-.305.741-.872.7-.938-.044-1.875-.022-2.813-.022H53.2c.24-.916.436-1.745.654-2.573.371-1.417.763-2.835,1.134-4.252a.88.88,0,0,1,.763-.72,23.325,23.325,0,0,1,5.91-.393,7.3,7.3,0,0,1,2.028.414,1.689,1.689,0,0,1,1.221,2.268c-.393,1.592-.829,3.184-1.265,4.754-.044.174-.262.458-.393.458C61.967,31.283,60.745,31.261,59.393,31.261Z" transform="translate(-41.606 -18.198)"/>
  <path id="Контур_4" data-name="Контур 4" d="M5.544,24.2c-.327,1.243-.611,2.355-.894,3.446-.109.436-.24.872-.349,1.308-.153.611.109.916.741.96.96.044,1,.022,1.243-.916.371-1.417.763-2.835,1.134-4.252a.589.589,0,0,1,.654-.523H11.1c.393,0,.567.087.436.567-.567,2.05-1.112,4.1-1.614,6.172-.2.807-.807.85-1.374.916-1.527.153-3.031.283-4.558.305a8.713,8.713,0,0,1-2.246-.305A1.981,1.981,0,0,1,.157,29.129c.371-1.439.763-2.879,1.134-4.318a.656.656,0,0,1,.763-.589C3.167,24.222,4.3,24.2,5.544,24.2Z" transform="translate(-0.034 -18.923)"/>
  <path id="Контур_5" data-name="Контур 5" d="M116.736,8c-.2.763-.349,1.439-.523,2.137-.763,2.857-1.527,5.714-2.268,8.592-.109.458-.305.632-.785.611-1-.044-1.984-.022-2.988,0-.414,0-.48-.153-.393-.5.916-3.424,1.81-6.869,2.726-10.293.044-.2.262-.48.414-.5C114.162,8,115.405,8,116.736,8Z" transform="translate(-85.82 -6.255)"/>
  <path id="Контур_6" data-name="Контур 6" d="M143.765,24.281c-.327,1.265-.632,2.464-.938,3.664-.305,1.178-.632,2.333-.938,3.511a.573.573,0,0,1-.676.523c-1-.022-2.028-.022-3.031,0-.393,0-.523-.087-.414-.523.611-2.224,1.178-4.449,1.745-6.673a.656.656,0,0,1,.763-.589c.981.022,1.963,0,2.922,0C143.372,24.215,143.525,24.237,143.765,24.281Z" transform="translate(-107.702 -18.916)"/>
  <g id="Сгруппировать_35" data-name="Сгруппировать 35" transform="translate(32.602 0)">
    <path id="Контур_7" data-name="Контур 7" d="M219.325,3.424h-3.184c-.763,0-.916-.24-.72-.981.153-.523.305-1.069.458-1.592A1,1,0,0,1,216.97,0h6.586c.632,0,.829.283.654.894-.153.567-.327,1.134-.5,1.7a1,1,0,0,1-1.112.829Z" transform="translate(-200.992 0)" fill="red"/>
    <path id="Контур_8" data-name="Контур 8" d="M180.464,6.864h-2.355c-.545,0-.7-.2-.567-.72.087-.349.174-.7.283-1.047a.853.853,0,0,1,.894-.7h4.8c.545,0,.676.174.545.7-.087.371-.2.741-.284,1.112a.839.839,0,0,1-.916.676C182.056,6.864,181.271,6.864,180.464,6.864Z" transform="translate(-171.399 -3.44)" fill="red"/>
    <path id="Контур_9" data-name="Контур 9" d="M151.946,7.677h1.417c.393,0,.654.109.48.611-.087.218-.065.48-.2.632a1.083,1.083,0,0,1-.654.48c-.981.044-1.984.022-2.988.022q-.556,0-.458-.523c.24-1.112.305-1.265,1.287-1.221C151.226,7.7,151.6,7.677,151.946,7.677Z" transform="translate(-149.533 -5.998)" fill="red"/>
  </g>
</svg>
