<svg xmlns="http://www.w3.org/2000/svg" width="17.561" height="10.508" viewBox="0 0 17.561 10.508">
  <g id="Master_Card_преобразованный_" data-name="Master_Card [преобразованный]" transform="translate(0 0)">
    <g id="Сгруппировать_247" data-name="Сгруппировать 247" transform="translate(0 0)">
      <g id="Сгруппировать_242" data-name="Сгруппировать 242" transform="translate(0)">
        <g id="Сгруппировать_241" data-name="Сгруппировать 241">
          <path id="Контур_4902" data-name="Контур 4902" d="M250.166,363.377a5.254,5.254,0,1,1-5.254-5.254A5.254,5.254,0,0,1,250.166,363.377Z" transform="translate(-239.658 -358.123)" fill="#e40520"/>
          <g id="Сгруппировать_240" data-name="Сгруппировать 240" transform="translate(7.172)">
            <path id="Контур_4903" data-name="Контур 4903" d="M303.6,358.123a5.235,5.235,0,0,0-3.527,1.36,5.363,5.363,0,0,0-.53.556H300.6a5.351,5.351,0,0,1,.4.556h-1.863a5.284,5.284,0,0,0-.3.557h2.468a5.253,5.253,0,0,1,.222.556h-2.913a5.2,5.2,0,0,0-.153.556h3.218a5.286,5.286,0,0,1-.152,2.782h-2.913a5.277,5.277,0,0,0,.222.556h2.468a5.244,5.244,0,0,1-.3.556h-1.862a5.311,5.311,0,0,0,.4.556H300.6a5.267,5.267,0,0,1-.531.556,5.254,5.254,0,1,0,3.527-9.149Z" transform="translate(-298.464 -358.123)" fill="#fab31e"/>
          </g>
        </g>
        <path id="Контур_4904" data-name="Контур 4904" d="M377.917,424a.17.17,0,1,1,.17.17A.17.17,0,0,1,377.917,424Zm.17.129a.129.129,0,1,0-.129-.129A.129.129,0,0,0,378.087,424.126Zm-.023-.055h-.035v-.149h.063a.069.069,0,0,1,.038.007.045.045,0,0,1,.019.037.04.04,0,0,1-.026.038l.028.066h-.039l-.023-.059h-.026Zm0-.084h.019a.047.047,0,0,0,.021,0,.02.02,0,0,0,.009-.017.019.019,0,0,0-.009-.015.048.048,0,0,0-.022,0h-.019Z" transform="translate(-361.056 -415.814)" fill="#fab31e"/>
      </g>
      <g id="Сгруппировать_246" data-name="Сгруппировать 246" transform="translate(0.335 3.905)">
        <g id="Сгруппировать_243" data-name="Сгруппировать 243" transform="translate(0 0.071)">
          <path id="Контур_4905" data-name="Контур 4905" d="M264.287,396.921a.965.965,0,0,0-.127-.009c-.323,0-.487.111-.487.33a.2.2,0,0,0,.2.221C264.109,397.463,264.277,397.242,264.287,396.921Zm.415.966h-.473l.011-.225a.716.716,0,0,1-.6.262.533.533,0,0,1-.521-.592c0-.528.369-.836,1-.836a1.953,1.953,0,0,1,.233.017.533.533,0,0,0,.022-.14c0-.143-.1-.2-.366-.2a1.906,1.906,0,0,0-.6.1l.079-.487a2.267,2.267,0,0,1,.683-.115c.49,0,.749.22.749.636a2.772,2.772,0,0,1-.046.43C264.822,397.05,264.716,397.723,264.7,397.887Z" transform="translate(-260.595 -395.068)" fill="#06326e"/>
          <path id="Контур_4906" data-name="Контур 4906" d="M244.7,394.652h-.571l.327-2.048-.73,2.048h-.389l-.048-2.037-.343,2.037h-.534l.446-2.665h.82l.05,1.492.5-1.492h.912Z" transform="translate(-242.409 -391.833)" fill="#06326e"/>
          <path id="Контур_4907" data-name="Контур 4907" d="M337.967,396.921a.963.963,0,0,0-.127-.009c-.323,0-.487.111-.487.33a.2.2,0,0,0,.2.221C337.79,397.463,337.958,397.242,337.967,396.921Zm.415.966h-.473l.011-.225a.716.716,0,0,1-.6.262.533.533,0,0,1-.521-.592c0-.528.369-.836,1-.836a1.953,1.953,0,0,1,.232.017.532.532,0,0,0,.022-.14c0-.143-.1-.2-.366-.2a1.91,1.91,0,0,0-.6.1c.006-.036.079-.487.079-.487a2.265,2.265,0,0,1,.682-.115c.49,0,.749.22.749.636a2.759,2.759,0,0,1-.046.43C338.5,397.05,338.4,397.723,338.383,397.887Z" transform="translate(-325.29 -395.068)" fill="#06326e"/>
          <path id="Контур_4908" data-name="Контур 4908" d="M290.671,395.84a1.307,1.307,0,0,1-.41.07.417.417,0,0,1-.451-.476,4.982,4.982,0,0,1,.078-.578c.033-.2.247-1.479.247-1.479h.567l-.066.328h.342l-.077.521h-.344c-.066.412-.16.926-.161.994,0,.112.06.16.2.16a.464.464,0,0,0,.154-.021Z" transform="translate(-284.029 -393.055)" fill="#06326e"/>
          <path id="Контур_4909" data-name="Контур 4909" d="M299.98,397.836a1.925,1.925,0,0,1-.582.088.862.862,0,0,1-.966-.967c0-.741.421-1.286.992-1.286a.724.724,0,0,1,.766.784,2.32,2.32,0,0,1-.07.533h-1.129c-.038.314.163.445.493.445a1.347,1.347,0,0,0,.589-.136Zm-.319-1.285c0-.045.06-.387-.264-.387-.18,0-.31.138-.362.387Z" transform="translate(-291.601 -395.068)" fill="#06326e"/>
          <path id="Контур_4910" data-name="Контур 4910" d="M277.333,396.4a.633.633,0,0,0,.434.605c.231.109.267.141.267.239,0,.135-.1.2-.327.2a1.6,1.6,0,0,1-.511-.086l-.078.5a2.655,2.655,0,0,0,.594.064c.6,0,.88-.229.88-.724a.593.593,0,0,0-.4-.6c-.239-.11-.267-.134-.267-.235,0-.117.095-.177.279-.177a3.165,3.165,0,0,1,.41.033l.081-.5a3.84,3.84,0,0,0-.5-.042C277.552,395.671,277.331,396,277.333,396.4Z" transform="translate(-272.884 -395.068)" fill="#06326e"/>
          <path id="Контур_4911" data-name="Контур 4911" d="M315.387,391.388a1.086,1.086,0,0,1,.51.144l.093-.578a1.676,1.676,0,0,0-.627-.225,1.136,1.136,0,0,0-.931.5c-.331-.11-.467.112-.634.333l-.148.034a1.088,1.088,0,0,0,.018-.218h-.524c-.071.671-.2,1.35-.3,2.022l-.026.146h.571c.1-.619.147-1.015.179-1.283l.215-.119c.032-.12.132-.16.334-.155a2.444,2.444,0,0,0-.04.444c0,.709.383,1.151,1,1.151a1.785,1.785,0,0,0,.5-.078l.1-.607a1.11,1.11,0,0,1-.485.137c-.332,0-.532-.245-.532-.649C314.663,391.8,314.961,391.388,315.387,391.388Z" transform="translate(-304.233 -390.728)" fill="#06326e"/>
          <path id="Контур_4912" data-name="Контур 4912" d="M354.021,391.986l-.127.77a.713.713,0,0,0-.544-.354.884.884,0,0,0-.721.54,4.662,4.662,0,0,1-.486-.134v0a3.2,3.2,0,0,0,.025-.326h-.524c-.071.671-.2,1.35-.3,2.021l-.026.146h.571c.077-.5.136-.916.179-1.245.2-.176.293-.33.49-.32a1.859,1.859,0,0,0-.138.7c0,.542.274.9.689.9a.673.673,0,0,0,.526-.239l-.027.2h.54l.434-2.665Zm-.713,2.164c-.194,0-.292-.144-.292-.427,0-.426.184-.728.442-.728.2,0,.3.149.3.424C353.76,393.849,353.573,394.15,353.307,394.15Z" transform="translate(-338.038 -391.833)" fill="#06326e"/>
        </g>
        <g id="Сгруппировать_245" data-name="Сгруппировать 245" transform="translate(0.164)">
          <path id="Контур_4913" data-name="Контур 4913" d="M246.041,393.356h-.57l.327-2.048-.729,2.048h-.389l-.048-2.036-.344,2.036h-.534l.446-2.665h.82l.023,1.65.553-1.65h.886Z" transform="translate(-243.754 -390.624)" fill="#fff"/>
          <path id="Контур_4914" data-name="Контур 4914" d="M265.634,395.625a.951.951,0,0,0-.127-.009c-.323,0-.487.111-.487.33a.2.2,0,0,0,.2.221C265.456,396.167,265.624,395.946,265.634,395.625Zm.415.965h-.473l.011-.224a.716.716,0,0,1-.6.262.533.533,0,0,1-.521-.592c0-.528.369-.835,1-.835a1.9,1.9,0,0,1,.232.017.535.535,0,0,0,.022-.141c0-.143-.1-.2-.366-.2a1.9,1.9,0,0,0-.6.1c.006-.036.079-.487.079-.487a2.27,2.27,0,0,1,.683-.115c.49,0,.749.22.749.635a2.753,2.753,0,0,1-.046.429C266.169,395.754,266.063,396.427,266.049,396.591Z" transform="translate(-261.942 -393.859)" fill="#fff"/>
          <path id="Контур_4915" data-name="Контур 4915" d="M326.4,390.283l-.093.578a1.088,1.088,0,0,0-.509-.144c-.426,0-.725.412-.725,1,0,.4.2.649.532.649a1.1,1.1,0,0,0,.485-.137l-.1.607a1.783,1.783,0,0,1-.5.078c-.614,0-1-.442-1-1.151,0-.953.529-1.618,1.284-1.618A1.981,1.981,0,0,1,326.4,390.283Z" transform="translate(-314.639 -390.144)" fill="#fff"/>
          <path id="Контур_4916" data-name="Контур 4916" d="M339.313,395.625a.946.946,0,0,0-.127-.009c-.323,0-.487.111-.487.33a.2.2,0,0,0,.2.221C339.136,396.167,339.3,395.946,339.313,395.625Zm.415.965h-.473l.011-.224a.717.717,0,0,1-.6.262.533.533,0,0,1-.521-.592c0-.528.368-.835,1-.835a1.9,1.9,0,0,1,.232.017.536.536,0,0,0,.022-.141c0-.143-.1-.2-.366-.2a1.9,1.9,0,0,0-.6.1l.079-.487a2.272,2.272,0,0,1,.683-.115c.49,0,.749.22.749.635a2.762,2.762,0,0,1-.046.429C339.849,395.754,339.743,396.427,339.728,396.591Z" transform="translate(-326.636 -393.859)" fill="#fff"/>
          <path id="Контур_4917" data-name="Контур 4917" d="M292.017,394.545a1.307,1.307,0,0,1-.41.07.417.417,0,0,1-.451-.476,5.013,5.013,0,0,1,.078-.578c.033-.2.247-1.479.247-1.479h.567l-.066.328h.291l-.077.521H291.9c-.066.413-.16.926-.161.994,0,.112.06.161.2.161a.458.458,0,0,0,.154-.021Z" transform="translate(-285.375 -391.847)" fill="#fff"/>
          <path id="Контур_4918" data-name="Контур 4918" d="M301.328,396.54a1.941,1.941,0,0,1-.582.088.862.862,0,0,1-.965-.967c0-.741.421-1.286.992-1.286a.724.724,0,0,1,.766.785,2.348,2.348,0,0,1-.07.533H300.34c-.038.314.163.446.493.446a1.342,1.342,0,0,0,.59-.137Zm-.319-1.285c0-.045.06-.387-.264-.387-.181,0-.31.138-.362.387Z" transform="translate(-292.948 -393.858)" fill="#fff"/>
          <path id="Контур_4919" data-name="Контур 4919" d="M278.679,395.108a.633.633,0,0,0,.435.605c.231.109.267.141.267.239,0,.135-.1.2-.327.2a1.61,1.61,0,0,1-.511-.085l-.078.5a2.65,2.65,0,0,0,.593.064c.6,0,.88-.229.88-.724a.593.593,0,0,0-.4-.6c-.239-.11-.267-.134-.267-.236,0-.117.095-.177.279-.177a3.167,3.167,0,0,1,.41.033l.081-.5a3.9,3.9,0,0,0-.5-.042C278.9,394.374,278.677,394.707,278.679,395.108Z" transform="translate(-274.23 -393.858)" fill="#fff"/>
          <path id="Контур_4920" data-name="Контур 4920" d="M363.424,393.357h-.539l.027-.2a.672.672,0,0,1-.526.239c-.414,0-.689-.357-.689-.9,0-.721.425-1.328.928-1.328a.643.643,0,0,1,.545.3l.126-.77h.562Zm-.842-.5c.266,0,.452-.3.452-.73,0-.275-.106-.425-.3-.425-.259,0-.442.3-.442.728C362.29,392.713,362.389,392.856,362.583,392.856Z" transform="translate(-347.314 -390.625)" fill="#fff"/>
          <path id="Контур_4921" data-name="Контур 4921" d="M352.991,394.6c-.071.671-.2,1.35-.3,2.021l-.026.146h.571c.2-1.325.253-1.584.573-1.552a2.125,2.125,0,0,1,.216-.629c-.239-.05-.372.085-.547.342a1.99,1.99,0,0,0,.034-.329Z" transform="translate(-339.386 -394.04)" fill="#fff"/>
          <path id="Контур_4922" data-name="Контур 4922" d="M314.49,394.6c-.072.671-.2,1.35-.3,2.021l-.026.146h.571c.2-1.325.253-1.584.573-1.552a2.143,2.143,0,0,1,.217-.629c-.239-.05-.372.085-.547.342a1.957,1.957,0,0,0,.034-.329Z" transform="translate(-305.579 -394.04)" fill="#fff"/>
          <g id="Сгруппировать_244" data-name="Сгруппировать 244" transform="translate(16.361 2.392)">
            <path id="Контур_4923" data-name="Контур 4923" d="M377.915,409.928a.17.17,0,1,1,.17.17A.17.17,0,0,1,377.915,409.928Zm.17.129a.129.129,0,1,0-.129-.129A.129.129,0,0,0,378.085,410.057Zm-.023-.055h-.035v-.149h.063a.069.069,0,0,1,.038.008.044.044,0,0,1,.019.037.041.041,0,0,1-.026.039l.027.065h-.039l-.023-.059h-.025V410Zm0-.084h.019a.043.043,0,0,0,.021,0,.02.02,0,0,0,.008-.017.02.02,0,0,0-.008-.016.05.05,0,0,0-.022,0h-.018Z" transform="translate(-377.915 -409.758)" fill="#fff"/>
          </g>
        </g>
      </g>
    </g>
  </g>
</svg>
