<svg xmlns="http://www.w3.org/2000/svg" width="42" height="10.838" viewBox="0 0 42 10.838">
  <g id="Сгруппировать_987" data-name="Сгруппировать 987" transform="translate(1606.367 -1402.882)">
    <path id="Контур_7367" data-name="Контур 7367" d="M-1602.266,1405.664h3.057c1.641,0,2.26.831,2.164,2.053-.158,2.016-1.377,3.13-2.993,3.13h-.816c-.221,0-.37.147-.431.544l-.349,2.311c-.023.151-.1.239-.221.249h-1.917c-.18,0-.244-.137-.2-.437l1.17-7.412A.468.468,0,0,1-1602.266,1405.664Z" transform="translate(-0.198 -0.231)" fill="#0090df" fill-rule="evenodd"/>
    <path id="Контур_7368" data-name="Контур 7368" d="M-1590.988,1405.514a1.677,1.677,0,0,1,1.854,1.954c-.155,1.653-1.045,2.574-2.447,2.578h-1.223c-.176,0-.26.143-.307.438l-.236,1.505c-.036.228-.152.339-.325.339h-1.138c-.182,0-.245-.116-.2-.376l.941-6.032c.046-.3.16-.407.36-.407Zm-1.854,3.229h.927c.58-.021.966-.423,1-1.147a.7.7,0,0,0-.759-.766l-.873,0-.3,1.909Zm6.8,3.124c.1-.094.21-.144.194-.028l-.037.28c-.019.146.039.224.174.224h1.012c.171,0,.253-.069.3-.333l.624-3.912c.031-.2-.016-.293-.166-.293h-1.112c-.1,0-.149.056-.175.209l-.04.241c-.022.126-.08.148-.133.021-.189-.448-.67-.648-1.345-.634a2.784,2.784,0,0,0-2.725,2.735,1.881,1.881,0,0,0,1.865,2.1,2.011,2.011,0,0,0,1.57-.607Zm-.846-.6a1.016,1.016,0,0,1-1.043-1.192,1.453,1.453,0,0,1,1.4-1.192,1.016,1.016,0,0,1,1.043,1.192,1.453,1.453,0,0,1-1.4,1.192Zm5.09-3.473h-1.023c-.212,0-.3.155-.23.352l1.273,3.73-1.255,1.774c-.1.148-.024.283.124.283h1.153a.352.352,0,0,0,.343-.169l3.917-5.618c.12-.173.063-.354-.134-.354l-1.09,0c-.187,0-.262.074-.37.23l-1.633,2.37-.727-2.374A.314.314,0,0,0-1581.8,1407.792Z" transform="translate(-0.94 -0.218)" fill="#002d73" fill-rule="evenodd"/>
    <path id="Контур_7369" data-name="Контур 7369" d="M-1571.83,1405.514a1.676,1.676,0,0,1,1.853,1.954c-.154,1.653-1.046,2.574-2.447,2.578h-1.222c-.177,0-.261.143-.307.438l-.237,1.505c-.036.228-.151.339-.325.339h-1.138c-.182,0-.245-.116-.2-.376l.941-6.032c.047-.3.159-.407.361-.407Zm-1.854,3.229h.927c.58-.021.966-.423,1-1.147a.7.7,0,0,0-.759-.766l-.873,0-.3,1.909Zm6.8,3.124c.1-.094.21-.144.194-.028l-.037.28c-.019.146.038.224.174.224h1.012c.171,0,.253-.069.3-.333l.624-3.912c.031-.2-.016-.293-.166-.293h-1.112c-.1,0-.149.056-.175.209l-.041.241c-.022.126-.079.148-.133.021-.189-.448-.669-.648-1.345-.634a2.783,2.783,0,0,0-2.725,2.735,1.88,1.88,0,0,0,1.864,2.1,2.011,2.011,0,0,0,1.57-.607Zm-.846-.6a1.016,1.016,0,0,1-1.042-1.192,1.452,1.452,0,0,1,1.4-1.192,1.016,1.016,0,0,1,1.042,1.192,1.453,1.453,0,0,1-1.4,1.192Zm4.665,1.084h-1.167a.138.138,0,0,1-.143-.161l1.027-6.5a.2.2,0,0,1,.193-.162h1.168a.139.139,0,0,1,.144.162l-1.027,6.5A.2.2,0,0,1-1563.062,1412.349Z" transform="translate(-2.528 -0.218)" fill="#0090df" fill-rule="evenodd"/>
    <path id="Контур_7370" data-name="Контур 7370" d="M-1604.375,1402.882h3.06a3.828,3.828,0,0,1,2.568.632,2.072,2.072,0,0,1,.641,1.733c-.188,2.337-1.586,3.646-3.46,3.646h-1.509c-.257,0-.427.17-.5.632l-.421,2.679c-.028.174-.1.276-.24.289h-1.886c-.209,0-.283-.16-.228-.507l1.357-8.594A.542.542,0,0,1-1604.375,1402.882Z" fill="#002d73" fill-rule="evenodd"/>
    <path id="Контур_7371" data-name="Контур 7371" d="M-1603.274,1409.485l.534-3.382a.468.468,0,0,1,.533-.438h3.057a2.979,2.979,0,0,1,1.235.225,3.4,3.4,0,0,1-3.413,3.235h-1.51C-1603.036,1409.123-1603.185,1409.225-1603.274,1409.485Z" transform="translate(-0.256 -0.231)" fill="#00225e" fill-rule="evenodd"/>
  </g>
</svg>
