<svg xmlns="http://www.w3.org/2000/svg" width="17" height="18.211" viewBox="0 0 17 18.211">
  <path id="Контур_5183" data-name="Контур 5183" d="M-2055.014-443.8a5.816,5.816,0,0,1,1.952-4.323c.5-.461,1.171-1.3,1.932-1.214.787.1,1.359.977,1.735,1.576.684,1.059,1.785,2.607.774,3.778-.48.571-1.248.864-1.679,1.464a2.049,2.049,0,0,0,.118,2.065,12.813,12.813,0,0,0,3.1,3.737,2.817,2.817,0,0,0,2.022.837c.766-.111,1.352-.962,1.923-1.422,1.437-1.172,3.013.418,4.08,1.366a2.456,2.456,0,0,1,1.039,1.757c-.028.711-.976,1.325-1.5,1.758a5.823,5.823,0,0,1-4.943,1.157,11.351,11.351,0,0,1-4.971-2.816,23.06,23.06,0,0,1-3.759-4.491,10.868,10.868,0,0,1-1.255-2.426,12.168,12.168,0,0,1-.571-2.8C-2055-444.731-2054.944-443.295-2055.014-443.8Z" transform="translate(2055.014 449.339)" fill="red" fill-rule="evenodd"/>
</svg>
