<svg xmlns="http://www.w3.org/2000/svg" width="56.006" height="46" viewBox="0 0 56.006 46">
  <g id="Сгруппировать_833" data-name="Сгруппировать 833" transform="translate(-563.117 -187.5)">
    <g id="Banner_1_Gb" data-name="Banner 1 Gb" transform="translate(563.617 193.758)">
      <rect id="Background" width="25.477" height="37.133" rx="3" transform="translate(0 0)" fill="#fff" stroke="#787878" stroke-width="1"/>
      <g id="Button_-BUY-_Active" data-name="Button -BUY- Active" transform="translate(4.643 32.197)">
        <g id="Прямоугольник_1582" data-name="Прямоугольник 1582" transform="translate(0 0)" fill="#787878" stroke="#787878" stroke-linejoin="round" stroke-width="0.5">
          <rect width="15.897" height="2.042" rx="1.021" stroke="none"/>
          <rect x="0.25" y="0.25" width="15.397" height="1.542" rx="0.771" fill="none"/>
        </g>
      </g>
      <g id="Position" transform="translate(4.119 23.473)">
        <line id="Линия_31" data-name="Линия 31" x2="17.272" transform="translate(0)" fill="none" stroke="#787878" stroke-width="0.5"/>
      </g>
      <rect id="Прямоугольник_2120" data-name="Прямоугольник 2120" width="15.665" height="2.611" rx="1.305" transform="translate(4.787 2.341)" fill="#787878"/>
      <rect id="Прямоугольник_2122" data-name="Прямоугольник 2122" width="15.665" height="0.87" rx="0.435" transform="translate(4.787 25.837)" fill="#787878"/>
      <rect id="Прямоугольник_2123" data-name="Прямоугольник 2123" width="13.924" height="0.87" rx="0.435" transform="translate(5.657 27.578)" fill="#787878"/>
      <rect id="Прямоугольник_2124" data-name="Прямоугольник 2124" width="10.443" height="0.87" rx="0.435" transform="translate(7.398 29.319)" fill="#787878"/>
      <g id="Прямоугольник_2121" data-name="Прямоугольник 2121" transform="translate(2.176 6.692)" fill="none" stroke="#707070" stroke-width="0.5">
        <rect width="20.886" height="14.794" rx="2" stroke="none"/>
        <rect x="0.25" y="0.25" width="20.386" height="14.294" rx="1.75" fill="none"/>
      </g>
      <text id="_1Gb" data-name="1Gb" transform="translate(3.917 15.822)" fill="#787878" font-size="9" font-family="SegoeUI-Semibold, Segoe UI" font-weight="600"><tspan x="0" y="0">1</tspan><tspan y="0" font-size="7">Gb</tspan></text>
    </g>
    <g id="Banner_1_Gb-2" data-name="Banner 1 Gb" transform="translate(593.147 193.758)">
      <rect id="Background-2" data-name="Background" width="25.477" height="37.133" rx="3" transform="translate(0 0)" fill="#fff" stroke="#787878" stroke-width="1"/>
      <g id="Button_-BUY-_Active-2" data-name="Button -BUY- Active" transform="translate(4.643 32.197)">
        <g id="Прямоугольник_1582-2" data-name="Прямоугольник 1582" transform="translate(0 0)" fill="#787878" stroke="#787878" stroke-linejoin="round" stroke-width="0.5">
          <rect width="15.897" height="2.042" rx="1.021" stroke="none"/>
          <rect x="0.25" y="0.25" width="15.397" height="1.542" rx="0.771" fill="none"/>
        </g>
      </g>
      <g id="Position-2" data-name="Position" transform="translate(4.119 23.473)">
        <line id="Линия_31-2" data-name="Линия 31" x2="17.272" transform="translate(0)" fill="none" stroke="#787878" stroke-width="0.5"/>
      </g>
      <rect id="Прямоугольник_2120-2" data-name="Прямоугольник 2120" width="15.665" height="2.611" rx="1.305" transform="translate(4.787 2.341)" fill="#787878"/>
      <rect id="Прямоугольник_2122-2" data-name="Прямоугольник 2122" width="15.665" height="0.87" rx="0.435" transform="translate(4.787 25.837)" fill="#787878"/>
      <rect id="Прямоугольник_2123-2" data-name="Прямоугольник 2123" width="13.924" height="0.87" rx="0.435" transform="translate(5.657 27.578)" fill="#787878"/>
      <rect id="Прямоугольник_2124-2" data-name="Прямоугольник 2124" width="10.443" height="0.87" rx="0.435" transform="translate(7.398 29.319)" fill="#787878"/>
      <g id="Прямоугольник_2121-2" data-name="Прямоугольник 2121" transform="translate(2.176 6.692)" fill="none" stroke="#707070" stroke-width="0.5">
        <rect width="20.886" height="14.794" rx="2" stroke="none"/>
        <rect x="0.25" y="0.25" width="20.386" height="14.294" rx="1.75" fill="none"/>
      </g>
      <text id="_1Gb-2" data-name="1Gb" transform="translate(3.917 15.822)" fill="#787878" font-size="9" font-family="SegoeUI-Semibold, Segoe UI" font-weight="600"><tspan x="0" y="0">1</tspan><tspan y="0" font-size="7">Gb</tspan></text>
    </g>
    <g id="Banner_1_Gb-3" data-name="Banner 1 Gb" transform="translate(576.149 188)">
      <rect id="Background-3" data-name="Background" width="30.874" height="45" rx="3" transform="translate(0 0)" fill="#fff" stroke="red" stroke-width="1"/>
      <g id="Button_-BUY-_Active-3" data-name="Button -BUY- Active" transform="translate(5.626 39.018)">
        <g id="Прямоугольник_1582-3" data-name="Прямоугольник 1582" transform="translate(0 0)" fill="red" stroke="red" stroke-linejoin="round" stroke-width="0.5">
          <rect width="19.265" height="2.475" rx="1.237" stroke="none"/>
          <rect x="0.25" y="0.25" width="18.765" height="1.975" rx="0.987" fill="none"/>
        </g>
      </g>
      <g id="Position-3" data-name="Position" transform="translate(4.992 28.446)">
        <line id="Линия_31-3" data-name="Линия 31" x2="20.931" transform="translate(0)" fill="none" stroke="red" stroke-width="0.5"/>
      </g>
      <rect id="Прямоугольник_2120-3" data-name="Прямоугольник 2120" width="18.983" height="3.164" rx="1.582" transform="translate(5.801 2.836)" fill="red"/>
      <rect id="Прямоугольник_2122-3" data-name="Прямоугольник 2122" width="18.983" height="1.055" rx="0.527" transform="translate(5.801 31.311)" fill="red"/>
      <rect id="Прямоугольник_2123-3" data-name="Прямоугольник 2123" width="16.874" height="1.055" rx="0.527" transform="translate(6.856 33.421)" fill="red"/>
      <rect id="Прямоугольник_2124-3" data-name="Прямоугольник 2124" width="12.656" height="1.055" rx="0.527" transform="translate(8.965 35.53)" fill="red"/>
      <g id="Прямоугольник_2121-3" data-name="Прямоугольник 2121" transform="translate(2.637 8.11)" fill="none" stroke="red" stroke-width="0.5">
        <rect width="25.311" height="17.929" rx="2" stroke="none"/>
        <rect x="0.25" y="0.25" width="24.811" height="17.429" rx="1.75" fill="none"/>
      </g>
      <text id="_1Gb-3" data-name="1Gb" transform="translate(4.746 20.055)" fill="red" font-size="12" font-family="SegoeUI-Semibold, Segoe UI" font-weight="600"><tspan x="0" y="0">1</tspan><tspan y="0" font-size="10">Gb</tspan></text>
    </g>
  </g>
</svg>
