<svg xmlns="http://www.w3.org/2000/svg" width="59.57" height="46" viewBox="0 0 59.57 46">
  <g id="Сгруппировать_1009" data-name="Сгруппировать 1009" transform="translate(-560.955 -133.5)">
    <g id="Banner_1_Gb" data-name="Banner 1 Gb" transform="translate(561.455 139)">
      <rect id="Background" width="25.57" height="37.269" rx="3" transform="translate(0 0.5)" fill="#fff" stroke="red" stroke-width="1"/>
      <g id="Button_-BUY-_Active" data-name="Button -BUY- Active" transform="translate(4.66 32.314)">
        <g id="Прямоугольник_1582" data-name="Прямоугольник 1582" transform="translate(0 0)" fill="red" stroke="red" stroke-linejoin="round" stroke-width="0.5">
          <rect width="15.956" height="2.05" rx="1.025" stroke="none"/>
          <rect x="0.25" y="0.25" width="15.456" height="1.55" rx="0.775" fill="none"/>
        </g>
      </g>
      <g id="Position" transform="translate(4.134 23.559)">
        <line id="Линия_31" data-name="Линия 31" x2="17.335" transform="translate(0)" fill="none" stroke="red" stroke-width="0.5"/>
      </g>
      <rect id="Прямоугольник_2120" data-name="Прямоугольник 2120" width="15.722" height="2.62" rx="1.31" transform="translate(4.804 2.349)" fill="red"/>
      <rect id="Прямоугольник_2122" data-name="Прямоугольник 2122" width="15.722" height="0.873" rx="0.437" transform="translate(4.804 25.932)" fill="red"/>
      <rect id="Прямоугольник_2123" data-name="Прямоугольник 2123" width="13.975" height="0.873" rx="0.437" transform="translate(5.678 27.679)" fill="red"/>
      <rect id="Прямоугольник_2124" data-name="Прямоугольник 2124" width="10.481" height="0.873" rx="0.437" transform="translate(7.425 29.426)" fill="red"/>
      <g id="Прямоугольник_2121" data-name="Прямоугольник 2121" transform="translate(2.184 6.716)" fill="none" stroke="red" stroke-width="0.5">
        <rect width="20.963" height="14.849" rx="2" stroke="none"/>
        <rect x="0.25" y="0.25" width="20.463" height="14.349" rx="1.75" fill="none"/>
      </g>
      <text id="_1Gb" data-name="1Gb" transform="translate(3.931 15.843)" fill="red" font-size="9" font-family="SegoeUI-Semibold, Segoe UI" font-weight="600"><tspan x="0" y="0">1</tspan><tspan y="0" font-size="8">Gb</tspan></text>
    </g>
    <g id="Banner_1_Gb-2" data-name="Banner 1 Gb" transform="translate(594.455 139)">
      <rect id="Background-2" data-name="Background" width="25.57" height="37.269" rx="3" transform="translate(0 0)" fill="#fff" stroke="red" stroke-width="1"/>
      <g id="Button_-BUY-_Active-2" data-name="Button -BUY- Active" transform="translate(4.66 32.314)">
        <g id="Прямоугольник_1582-2" data-name="Прямоугольник 1582" transform="translate(0 0)" fill="red" stroke="red" stroke-linejoin="round" stroke-width="0.5">
          <rect width="15.956" height="2.05" rx="1.025" stroke="none"/>
          <rect x="0.25" y="0.25" width="15.456" height="1.55" rx="0.775" fill="none"/>
        </g>
      </g>
      <g id="Position-2" data-name="Position" transform="translate(4.134 23.559)">
        <line id="Линия_31-2" data-name="Линия 31" x2="17.335" transform="translate(0)" fill="none" stroke="red" stroke-width="0.5"/>
      </g>
      <rect id="Прямоугольник_2120-2" data-name="Прямоугольник 2120" width="15.722" height="2.62" rx="1.31" transform="translate(4.804 2.349)" fill="red"/>
      <rect id="Прямоугольник_2122-2" data-name="Прямоугольник 2122" width="15.722" height="0.873" rx="0.437" transform="translate(4.804 25.932)" fill="red"/>
      <rect id="Прямоугольник_2123-2" data-name="Прямоугольник 2123" width="13.975" height="0.873" rx="0.437" transform="translate(5.678 27.679)" fill="red"/>
      <rect id="Прямоугольник_2124-2" data-name="Прямоугольник 2124" width="10.481" height="0.873" rx="0.437" transform="translate(7.425 29.426)" fill="red"/>
      <g id="Прямоугольник_2121-2" data-name="Прямоугольник 2121" transform="translate(2.184 6.716)" fill="none" stroke="red" stroke-width="0.5">
        <rect width="20.963" height="14.849" rx="2" stroke="none"/>
        <rect x="0.25" y="0.25" width="20.463" height="14.349" rx="1.75" fill="none"/>
      </g>
      <text id="_1Gb-2" data-name="1Gb" transform="translate(3.931 15.843)" fill="red" font-size="9" font-family="SegoeUI-Semibold, Segoe UI" font-weight="600"><tspan x="0" y="0">1</tspan><tspan y="0" font-size="8">Gb</tspan></text>
    </g>
    <g id="Banner_1_Gb-3" data-name="Banner 1 Gb" transform="translate(576.148 134)">
      <rect id="Background-3" data-name="Background" width="30.874" height="45" rx="3" transform="translate(0 0)" fill="#fff" stroke="red" stroke-width="1"/>
      <g id="Button_-BUY-_Active-3" data-name="Button -BUY- Active" transform="translate(5.626 39.018)">
        <g id="Прямоугольник_1582-3" data-name="Прямоугольник 1582" transform="translate(0 0)" fill="red" stroke="red" stroke-linejoin="round" stroke-width="0.5">
          <rect width="19.265" height="2.475" rx="1.237" stroke="none"/>
          <rect x="0.25" y="0.25" width="18.765" height="1.975" rx="0.987" fill="none"/>
        </g>
      </g>
      <g id="Position-3" data-name="Position" transform="translate(4.992 28.446)">
        <line id="Линия_31-3" data-name="Линия 31" x2="20.931" transform="translate(0)" fill="none" stroke="red" stroke-width="0.5"/>
      </g>
      <rect id="Прямоугольник_2120-3" data-name="Прямоугольник 2120" width="18.983" height="3.164" rx="1.582" transform="translate(5.801 2.836)" fill="red"/>
      <rect id="Прямоугольник_2122-3" data-name="Прямоугольник 2122" width="18.983" height="1.055" rx="0.527" transform="translate(5.801 31.311)" fill="red"/>
      <rect id="Прямоугольник_2123-3" data-name="Прямоугольник 2123" width="16.874" height="1.055" rx="0.527" transform="translate(6.856 33.421)" fill="red"/>
      <rect id="Прямоугольник_2124-3" data-name="Прямоугольник 2124" width="12.656" height="1.055" rx="0.527" transform="translate(8.965 35.53)" fill="red"/>
      <g id="Прямоугольник_2121-3" data-name="Прямоугольник 2121" transform="translate(2.637 8.11)" fill="none" stroke="red" stroke-width="0.5">
        <rect width="25.311" height="17.929" rx="2" stroke="none"/>
        <rect x="0.25" y="0.25" width="24.811" height="17.429" rx="1.75" fill="none"/>
      </g>
      <text id="_1Gb-3" data-name="1Gb" transform="translate(4.746 20.055)" fill="red" font-size="12" font-family="SegoeUI-Semibold, Segoe UI" font-weight="600"><tspan x="0" y="0">1</tspan><tspan y="0" font-size="10">Gb</tspan></text>
    </g>
  </g>
</svg>
