<svg xmlns="http://www.w3.org/2000/svg" width="35.719" height="12.915" viewBox="0 0 35.719 12.915">
  <g id="Сгруппировать_990" data-name="Сгруппировать 990" transform="translate(1667.285 -1404.006)">
    <path id="Контур_7372" data-name="Контур 7372" d="M-1661.549,1415.493a5.74,5.74,0,0,1-5.736-5.744,5.738,5.738,0,0,1,5.735-5.743,5.738,5.738,0,0,1,5.735,5.743,5.79,5.79,0,0,1-.808,2.947.038.038,0,0,1-.067-.016,2.667,2.667,0,0,0-2.309-2.422c-.109-.017-.126-.083.017-.1a5.692,5.692,0,0,1,1.208.024,3.763,3.763,0,0,0,.024-.443,3.8,3.8,0,0,0-3.792-3.8,3.8,3.8,0,0,0-3.792,3.8,3.8,3.8,0,0,0,3.792,3.8h.175a5.057,5.057,0,0,1-.075-1.026c.008-.234.058-.268.158-.083a3.957,3.957,0,0,0,2.742,2.053,5.581,5.581,0,0,1,3.693,2.22c.116.143-.058.292-.192.175a5.333,5.333,0,0,0-3.609-1.553c-1.225.008-2.059.167-2.9.167Zm2.916-2.412a.651.651,0,0,1,.417.175c.258.218.333.467.2.651a.438.438,0,0,1-.341.151.591.591,0,0,1-.392-.143.55.55,0,0,1-.151-.718.325.325,0,0,1,.267-.116Zm1.268-.943c.217.083.3.409.316.55.034.259-.041.36-.125.36s-.2-.1-.325-.3a.609.609,0,0,1-.108-.542.183.183,0,0,1,.242-.067Z" transform="translate(0)" fill="#f07409"/>
    <g id="Сгруппировать_989" data-name="Сгруппировать 989" transform="translate(-1653.573 1405.683)">
      <path id="Контур_7373" data-name="Контур 7373" d="M-1633.557,1405.746h-1.273c-.118,0-.175.055-.171.173v6.25c0,.118.053.177.171.173h1.273c.118,0,.175-.055.173-.173v-6.25A.186.186,0,0,0-1633.557,1405.746Z" transform="translate(1655.391 -1405.585)" fill="#005fab"/>
      <path id="Контур_7374" data-name="Контур 7374" d="M-1635.17,1405.746h-1.421a.157.157,0,0,0-.161.124l-1.124,3.7-1.236-3.7a.16.16,0,0,0-.161-.111h-1a.163.163,0,0,0-.161.111l-1.236,3.7-1.124-3.7a.172.172,0,0,0-.161-.124h-1.421a.151.151,0,0,0-.135.075.162.162,0,0,0-.026.148l2.1,6.263a.159.159,0,0,0,.161.111h1.138a.16.16,0,0,0,.16-.111l1.224-3.651,1.223,3.651a.159.159,0,0,0,.161.112h1.138a.164.164,0,0,0,.16-.112l2.1-6.263a.162.162,0,0,0-.026-.148A.291.291,0,0,0-1635.17,1405.746Z" transform="translate(1654.854 -1405.585)" fill="#005fab"/>
      <path id="Контур_7375" data-name="Контур 7375" d="M-1645.162,1405.746h-1.271c-.119,0-.176.055-.173.173v6.25a.148.148,0,0,0,.173.173h1.271c.119,0,.175-.055.173-.173v-6.25A.149.149,0,0,0-1645.162,1405.746Z" transform="translate(1654.737 -1405.585)" fill="#005fab"/>
      <path id="Контур_7376" data-name="Контур 7376" d="M-1646.914,1412.128l-1.039-1.213a3.474,3.474,0,0,0,.545-1.869,3.453,3.453,0,0,0-3.449-3.453,3.452,3.452,0,0,0-3.447,3.453,3.451,3.451,0,0,0,3.447,3.453,3.481,3.481,0,0,0,1.866-.557l.259.321a.191.191,0,0,0,.162.074h1.556a.126.126,0,0,0,.1-.209Zm-2.237-2.438h-1.433a.135.135,0,0,0-.1.223l.68.829a1.708,1.708,0,0,1-.854.21,1.849,1.849,0,0,1-1.816-1.906,1.86,1.86,0,0,1,1.816-1.918,1.859,1.859,0,0,1,1.817,1.918A1.854,1.854,0,0,1-1649.151,1409.69Z" transform="translate(1654.304 -1405.594)" fill="#005fab"/>
    </g>
  </g>
</svg>
