<svg xmlns="http://www.w3.org/2000/svg" width="31" height="45.911" viewBox="0 0 31 45.911">
  <g id="Сгруппировать_844" data-name="Сгруппировать 844" transform="translate(-2677 -10744.849)">
    <g id="Сгруппировать_843" data-name="Сгруппировать 843" transform="translate(2677.5 10745)">
      <path id="Background" d="M3,0H19.456a3,3,0,0,1,3,3V41.911a3,3,0,0,1-3,3H3a3,3,0,0,1-3-3V3A3,3,0,0,1,3,0Z" transform="translate(0 0.349)" fill="#fff" stroke="red" stroke-width="1"/>
      <path id="Контур_7426" data-name="Контур 7426" d="M3,0A3,3,0,1,1,0,3,3,3,0,0,1,3,0Z" transform="translate(8.5 35.949)" fill="red"/>
      <path id="Контур_7424" data-name="Контур 7424" d="M4.5,0A4.5,4.5,0,1,1,0,4.5,4.5,4.5,0,0,1,4.5,0Z" transform="translate(10.5 20.949)" fill="red"/>
      <path id="Контур_7425" data-name="Контур 7425" d="M7,0A7,7,0,1,1,0,7,7,7,0,0,1,7,0Z" transform="translate(16.5 2.949)" fill="red"/>
    </g>
  </g>
</svg>
