<svg xmlns="http://www.w3.org/2000/svg" width="11.577" height="25" viewBox="0 0 11.577 25">
  <g id="Icine_loc_ship" data-name="Icine loc ship" transform="translate(-656 -456)">
    <path id="Path_5185" data-name="Path 5185" d="M-1676.86-453.76a5.864,5.864,0,0,0-1.66-4.173,5.863,5.863,0,0,0-4.125-1.775,5.867,5.867,0,0,0-5.79,5.948,6.027,6.027,0,0,0,.982,3.312h.014l4.794,7.406,4.813-7.406h-.009a5.994,5.994,0,0,0,.981-3.312Zm-5.785,3.312a3.275,3.275,0,0,1-3.228-3.312,3.269,3.269,0,0,1,3.228-3.311,3.265,3.265,0,0,1,2.3.986,3.265,3.265,0,0,1,.927,2.325,3.272,3.272,0,0,1-3.232,3.312Z" transform="translate(2344.436 915.708)" fill="red"/>
    <ellipse id="Ellipse_14" data-name="Ellipse 14" cx="5.5" cy="2.5" rx="5.5" ry="2.5" transform="translate(656 476)" fill="red"/>
  </g>
</svg>
