<svg xmlns="http://www.w3.org/2000/svg" width="25" height="25" viewBox="0 0 25 25">
  <path id="Контур_6500" data-name="Контур 6500" d="M21.435.5H4.943A4.267,4.267,0,0,0,.689,4.754V21.246A4.266,4.266,0,0,0,4.943,25.5H21.435a4.266,4.266,0,0,0,4.254-4.254V4.754A4.267,4.267,0,0,0,21.435.5Zm-.053,4.6L3.7,11.992a.645.645,0,0,0,.052,1.219l4.492,1.326,1.677,5.32a.771.771,0,0,0,1.287.308l2.322-2.372,4.557,3.345a.951.951,0,0,0,1.494-.572L22.6,6.137A.91.91,0,0,0,21.382,5.1Zm-2.216,3.2-8.211,7.261a.441.441,0,0,0-.146.281l-.316,2.81a.085.085,0,0,1-.166.016l-1.3-4.191a.441.441,0,0,1,.189-.506l9.7-6.014a.214.214,0,0,1,.255.343Zm0,0" transform="translate(-0.689 -0.5)" fill="#fff" fill-rule="evenodd"/>
</svg>
