<svg xmlns="http://www.w3.org/2000/svg" width="20.606" height="13.005" viewBox="0 0 20.606 13.005">
  <g id="Icone" transform="translate(-0.002 0.009)">
    <path id="Path_5188" data-name="Path 5188" d="M-148.02-31.879a.738.738,0,0,1,.073-.3c.295-.621.6-1.237.9-1.855.257-.53.5-1.065.772-1.59a.923.923,0,0,1,.915-.549c1.132.02,2.265.007,3.4.008a.777.777,0,0,1,.639.22.777.777,0,0,1,.225.638V-29.3h.852v-8.4a.791.791,0,0,1,.227-.649.791.791,0,0,1,.649-.227h11c.68,0,.945.267.945.95v9.365a.778.778,0,0,1-.223.652.778.778,0,0,1-.653.22h-.849c-.131,0-.186-.038-.205-.174a4.136,4.136,0,0,0-.151-.718,2.49,2.49,0,0,0-3.043-1.531A2.5,2.5,0,0,0-134.3-27.64c0,.194-.068.253-.263.252q-3.515-.009-7.029,0c-.293,0-.291,0-.317-.282a2.225,2.225,0,0,0-.042-.228,2.471,2.471,0,0,0-1.25-1.714,2.471,2.471,0,0,0-2.119-.113,2.451,2.451,0,0,0-1.562,2.173c-.006.059-.065.154-.109.159a.82.82,0,0,1-.731-.157.82.82,0,0,1-.3-.684C-148.019-29.447-148.025-30.664-148.02-31.879Zm2.329,1.026a.3.3,0,0,0,.171-.106q.533-.544,1.058-1.1a.486.486,0,0,1,.388-.168c.614.009,1.228,0,1.858,0v-2.821h-.194c-.912,0-1.824,0-2.737-.008a.26.26,0,0,0-.277.166c-.413.867-.8,1.748-1.255,2.592a3.07,3.07,0,0,0-.207,1.442c.407.007.8.011,1.195,0Z" transform="translate(148.024 38.573)" fill="red"/>
    <path id="Path_5189" data-name="Path 5189" d="M-140.909-19.387a1.841,1.841,0,0,1,1.311.532,1.841,1.841,0,0,1,.547,1.305,1.838,1.838,0,0,1-.532,1.32,1.838,1.838,0,0,1-1.314.545,1.846,1.846,0,0,1-1.851-1.833,1.846,1.846,0,0,1,.53-1.318A1.846,1.846,0,0,1-140.909-19.387Z" transform="translate(157.093 28.681)" fill="red"/>
    <path id="Path_5190" data-name="Path 5190" d="M-114.961-19.4a1.879,1.879,0,0,1,1.846,1.847,1.868,1.868,0,0,1-1.847,1.863,1.876,1.876,0,0,1-1.849-1.844,1.889,1.889,0,0,1,1.85-1.866Z" transform="translate(118.592 28.686)" fill="red"/>
  </g>
</svg>
