<svg xmlns="http://www.w3.org/2000/svg" width="49.891" height="49.234" viewBox="0 0 49.891 49.234">
  <g id="Сгруппировать_842" data-name="Сгруппировать 842" transform="translate(-2492.315 -10744.811)">
    <g id="Banner_1_Gb" data-name="Banner 1 Gb" transform="translate(2510.37 10745.311)">
      <g id="Сгруппировать_847" data-name="Сгруппировать 847">
        <rect id="Background" width="30.954" height="45.116" rx="3" transform="translate(0.381)" fill="#fff" stroke="#787878" stroke-width="1"/>
        <rect id="Прямоугольник_2120" data-name="Прямоугольник 2120" width="12" height="2" rx="1" transform="translate(4.881 3.949)" fill="#787878"/>
        <path id="Прямоугольник_2122" data-name="Прямоугольник 2122" d="M0,0H13.5A1.5,1.5,0,0,1,15,1.5v0A1.5,1.5,0,0,1,13.5,3H0A0,0,0,0,1,0,3V0A0,0,0,0,1,0,0Z" transform="translate(5.881 10.949)" fill="#787878"/>
        <path id="Прямоугольник_2122-2" data-name="Прямоугольник 2122" d="M0,0H18.5A1.5,1.5,0,0,1,20,1.5v0A1.5,1.5,0,0,1,18.5,3H0A0,0,0,0,1,0,3V0A0,0,0,0,1,0,0Z" transform="translate(5.881 16.949)" fill="#787878"/>
        <path id="Прямоугольник_2122-3" data-name="Прямоугольник 2122" d="M0,0H8.5A1.5,1.5,0,0,1,10,1.5v0A1.5,1.5,0,0,1,8.5,3H0A0,0,0,0,1,0,3V0A0,0,0,0,1,0,0Z" transform="translate(5.881 22.949)" fill="#787878"/>
        <path id="Прямоугольник_2122-4" data-name="Прямоугольник 2122" d="M0,0H18.5A1.5,1.5,0,0,1,20,1.5v0A1.5,1.5,0,0,1,18.5,3H0A0,0,0,0,1,0,3V0A0,0,0,0,1,0,0Z" transform="translate(5.881 28.949)" fill="#787878"/>
        <rect id="Прямоугольник_2129" data-name="Прямоугольник 2129" width="12" height="1" rx="0.5" transform="translate(9.881 40.949)" fill="#787878"/>
        <rect id="Прямоугольник_2130" data-name="Прямоугольник 2130" width="30" height="1" rx="0.5" transform="translate(5.381 39.449) rotate(-90)" fill="#787878"/>
        <path id="Прямоугольник_2131" data-name="Прямоугольник 2131" d="M0,0H13.5A1.5,1.5,0,0,1,15,1.5v0A1.5,1.5,0,0,1,13.5,3H0A0,0,0,0,1,0,3V0A0,0,0,0,1,0,0Z" transform="translate(5.881 34.949)" fill="#787878"/>
      </g>
      <g id="Icone_Pay" data-name="Icone Pay" transform="matrix(0.574, 0.819, -0.819, 0.574, -4.378, 18.02)">
        <path id="Контур_5176" data-name="Контур 5176" d="M22.98,0H2.93A2.914,2.914,0,0,0,0,2.852v7.584H25.8V2.852A2.823,2.823,0,0,0,22.98,0ZM7.007,7.853a2.072,2.072,0,0,1-1.441-.582,2.081,2.081,0,1,1,0-3A2.08,2.08,0,1,1,7.007,7.853Z" transform="translate(0 0)" fill="#787878"/>
        <path id="Контур_5177" data-name="Контур 5177" d="M0,.168A2.927,2.927,0,0,0,2.93,3.036H22.98A2.838,2.838,0,0,0,25.8.168V0H0Z" transform="translate(0 13.66)" fill="#787878"/>
      </g>
    </g>
  </g>
</svg>
