<svg id="Login" xmlns="http://www.w3.org/2000/svg" width="19.939" height="19.939" viewBox="0 0 19.939 19.939">
  <path id="Login_in_-_1" data-name="Login (in) - 1" d="M5.2,8.353A3.967,3.967,0,0,1,3.238,3.785a3.925,3.925,0,0,1,7.5-.2A3.975,3.975,0,0,1,8.845,8.358a6.167,6.167,0,0,1,1.639.815,5.95,5.95,0,0,1,2.489,3.878,3.682,3.682,0,0,1,.077.534.445.445,0,0,1-.888.049,5.162,5.162,0,0,0-1.774-3.4A4.969,4.969,0,0,0,7.911,9.063,5.007,5.007,0,0,0,3.954,10a4.979,4.979,0,0,0-1.99,3.173c-.03.157-.06.314-.08.473a.437.437,0,0,1-.463.4A.417.417,0,0,1,1,13.6a7.513,7.513,0,0,1,.264-1.308A6.05,6.05,0,0,1,5.2,8.353Zm1.83-.462a3.031,3.031,0,1,0-2.165-.9,3.033,3.033,0,0,0,2.165.9Z" transform="translate(2.97 3.897)" fill="red"/>
  <g id="Эллипс_1" data-name="Эллипс 1" fill="none" stroke="red" stroke-width="1">
    <circle cx="9.97" cy="9.97" r="9.97" stroke="none"/>
    <circle cx="9.97" cy="9.97" r="9.47" fill="none"/>
  </g>
</svg>
