<svg xmlns="http://www.w3.org/2000/svg" width="28" height="18" viewBox="0 0 28 18">
  <g id="Сгруппировать_1011" data-name="Сгруппировать 1011" transform="translate(0.466 -0.167)">
    <g id="Прямоугольник_1671" data-name="Прямоугольник 1671" transform="translate(-0.466 0.167)" fill="#fff" stroke="#000" stroke-width="0.5">
      <rect width="28" height="18" rx="3" stroke="none"/>
      <rect x="0.25" y="0.25" width="27.5" height="17.5" rx="2.75" fill="none"/>
    </g>
    <g id="VISA" transform="translate(3.865 5.892)">
      <g id="Сгруппировать_249" data-name="Сгруппировать 249" transform="translate(0 0)">
        <g id="Сгруппировать_248" data-name="Сгруппировать 248" transform="translate(0 0)">
          <path id="Контур_4924" data-name="Контур 4924" d="M54.817,58.389H53.2l1.009-6.2h1.615Z" transform="translate(-46.239 -52.076)" fill="#005ca9"/>
          <path id="Контур_4925" data-name="Контур 4925" d="M16.831,52.186l-1.539,4.265-.182-.919h0l-.543-2.789a.691.691,0,0,0-.766-.559H11.256l-.03.105A6.03,6.03,0,0,1,12.915,53l1.4,5.388H16l2.569-6.2H16.831Z" transform="translate(-11.226 -52.075)" fill="#005ca9"/>
          <path id="Контур_4926" data-name="Контур 4926" d="M100.142,58.388h1.483l-1.293-6.2h-1.3a.742.742,0,0,0-.745.462l-2.408,5.74h1.683l.337-.921h2.053Zm-1.777-2.194.848-2.321.477,2.321Z" transform="translate(-81.838 -52.075)" fill="#005ca9"/>
          <path id="Контур_4927" data-name="Контур 4927" d="M73.529,53.12l.23-1.332a4.66,4.66,0,0,0-1.452-.27c-.8,0-2.7.35-2.7,2.053,0,1.6,2.233,1.622,2.233,2.464s-2,.691-2.664.16l-.24,1.392a4.523,4.523,0,0,0,1.823.35c1.1,0,2.764-.571,2.764-2.123,0-1.612-2.253-1.763-2.253-2.464S72.838,52.74,73.529,53.12Z" transform="translate(-59.359 -51.518)" fill="#005ca9"/>
        </g>
        <path id="Контур_4928" data-name="Контур 4928" d="M15.11,55.533l-.543-2.789a.691.691,0,0,0-.766-.559H11.256l-.03.105a6.257,6.257,0,0,1,2.4,1.2A4.836,4.836,0,0,1,15.11,55.533Z" transform="translate(-11.226 -52.075)" fill="#f7a823"/>
      </g>
    </g>
  </g>
</svg>
