<svg xmlns="http://www.w3.org/2000/svg" width="33.525" height="10.917" viewBox="0 0 33.525 10.917">
  <g id="Сгруппировать_993" data-name="Сгруппировать 993" transform="translate(1717.13 -1405.184)">
    <g id="Сгруппировать_992" data-name="Сгруппировать 992">
      <path id="Контур_7377" data-name="Контур 7377" d="M-1693.685,1409.081h-.7l-.413-1.524a3.631,3.631,0,0,1-.075-.4h-.008a3.157,3.157,0,0,1-.083.4l-.409,1.524h-.7l-.78-2.676h.68l.382,1.639c.044.2.071.436.071.436h.007s.042-.237.093-.436l.43-1.639h.621l.431,1.639c.05.2.092.436.092.436h.009s.025-.237.067-.436l.384-1.639h.681l-.779,2.676Z" fill="#100e0c"/>
      <path id="Контур_7378" data-name="Контур 7378" d="M-1691.2,1407.789c-.5.026-.935.071-.935.473,0,.252.2.4.55.4a1.285,1.285,0,0,0,.385-.053v-.816Zm-.365,1.351c-.8,0-1.206-.317-1.206-.863,0-.73.758-.874,1.571-.918v-.139c0-.279-.194-.383-.5-.383a2.185,2.185,0,0,0-.749.159l-.17-.457a2.762,2.762,0,0,1,.994-.194c.687,0,1.066.269,1.066.954v1.647a2.438,2.438,0,0,1-1,.194Z" fill="#100e0c"/>
      <path id="Контур_7379" data-name="Контур 7379" d="M-1690.053,1409.081h.674v-3.9h-.674v3.9Z" fill="#100e0c"/>
      <path id="Контур_7380" data-name="Контур 7380" d="M-1688.813,1409.081h.677v-3.9h-.677v3.9Z" fill="#100e0c"/>
      <path id="Контур_7381" data-name="Контур 7381" d="M-1686.489,1406.837c-.353,0-.6.258-.611.759l1.124-.154c0-.4-.2-.6-.513-.6Zm1.156.952-1.723.235a.677.677,0,0,0,.741.586,1.714,1.714,0,0,0,.744-.169l.2.505a2.358,2.358,0,0,1-.988.194,1.271,1.271,0,0,1-1.351-1.4,1.242,1.242,0,0,1,1.242-1.4,1.1,1.1,0,0,1,1.152,1.217,1.462,1.462,0,0,1-.012.227Z" fill="#100e0c"/>
      <path id="Контур_7382" data-name="Контур 7382" d="M-1684.012,1409.12c-.515,0-.759-.282-.759-.843v-1.365h-.342v-.507h.342v-.595l.662-.194v.789h.5v.507h-.5v1.32c0,.219.135.293.311.293a.549.549,0,0,0,.193-.039v.56a1.064,1.064,0,0,1-.407.074Z" fill="#100e0c"/>
    </g>
    <path id="Контур_7383" data-name="Контур 7383" d="M-1694.761,1412.248c-.6,0-.894.538-.894,1.429s.3,1.423.894,1.423.9-.528.9-1.423-.3-1.429-.9-1.429Zm0,3.77a2.057,2.057,0,0,1-2.019-2.332,2.051,2.051,0,0,1,2.019-2.325,2.05,2.05,0,0,1,2.016,2.325,2.055,2.055,0,0,1-2.016,2.332Zm5.284-.1v-2.935a.686.686,0,0,0-.786-.721,2.042,2.042,0,0,0-.673.109v3.547h-1.122v-4.234a4.645,4.645,0,0,1,1.777-.324c1.324,0,1.936.548,1.936,1.505v3.053Zm5.8-2.3c0,.048-.007.1-.014.147l-2.868.39a1.125,1.125,0,0,0,1.232.977,2.857,2.857,0,0,0,1.24-.282l.325.842a3.94,3.94,0,0,1-1.645.323,2.117,2.117,0,0,1-2.249-2.332,2.069,2.069,0,0,1,2.066-2.325,1.8,1.8,0,0,1,1.913,1.862v.4Zm-1.937-1.44c-.587,0-1,.43-1.019,1.265l1.87-.257c0-.67-.332-1.008-.851-1.008Z" fill="#a60021"/>
    <path id="Контур_7384" data-name="Контур 7384" d="M-1701.938,1408.877a1.5,1.5,0,0,0-2.115.073l-2.185,2.184v-4.4a1.5,1.5,0,0,0-1.445-1.547,1.375,1.375,0,0,0-.9.344,1.582,1.582,0,0,0-.247.2l-5.413,5.414v-4.414a1.5,1.5,0,0,0-1.445-1.547,1.5,1.5,0,0,0-1.446,1.547v7.735a1.608,1.608,0,0,0,.256.873,1.271,1.271,0,0,0,.206.277,1.367,1.367,0,0,0,.624.348l.005,0a1.564,1.564,0,0,0,1.486-.422l5.425-5.423v4.345a1.622,1.622,0,0,0,.135.645,1.4,1.4,0,0,0,.318.505,1.5,1.5,0,0,0,2.115-.072l4.552-4.551a1.5,1.5,0,0,0,.07-2.116Z" fill="#100e0c"/>
    <path id="Контур_7385" data-name="Контур 7385" d="M-1698.361,1406.732a1.4,1.4,0,0,0-.4-1.063,1.4,1.4,0,0,0-1.114-.395,1.357,1.357,0,0,0-.491.121,1.61,1.61,0,0,0-.511.346l-2.92,2.921a1.5,1.5,0,0,0-.074,2.116,1.5,1.5,0,0,0,2.116-.071l.505-.506v4.353a1.5,1.5,0,0,0,1.445,1.547,1.5,1.5,0,0,0,1.443-1.547v-7.822Z" fill="#a60021"/>
  </g>
</svg>
