<svg xmlns="http://www.w3.org/2000/svg" width="34.306" height="8.975" viewBox="0 0 34.306 8.975">
  <g id="Сгруппировать_996" data-name="Сгруппировать 996" transform="translate(1717.738 -1431.057)">
    <g id="Сгруппировать_995" data-name="Сгруппировать 995">
      <path id="Контур_7388" data-name="Контур 7388" d="M-1713.25,1431.057a4.351,4.351,0,0,1,1.958.45c.086.052.19.087.277.139l-.416.364-.624-.641-1.039.935-.624-.676-1.941,1.768,1.248,1.369-.485.433,1.23,1.386-.485.433,1.75,1.958,1.039-.953.9,1.022a5,5,0,0,1-.589.4,4.533,4.533,0,0,1-2.2.589,4.511,4.511,0,0,1-4.488-4.488,4.5,4.5,0,0,1,4.488-4.487Z" fill="#00509e" fill-rule="evenodd"/>
      <path id="Контур_7389" data-name="Контур 7389" d="M-1714.082,1435.25l1.074-.953.953,1.057-1.057.97Z" fill="#00509e" fill-rule="evenodd"/>
      <path id="Контур_7390" data-name="Контур 7390" d="M-1713.32,1437.086l1.074-.953.953,1.074-1.074.953Z" fill="#00509e" fill-rule="evenodd"/>
      <path id="Контур_7391" data-name="Контур 7391" d="M-1714.844,1433.43l1.074-.953.953,1.057-1.057.97Z" fill="#00509e" fill-rule="evenodd"/>
      <path id="Контур_7392" data-name="Контур 7392" d="M-1712.886,1432.911l.8-.71.728.8-.8.728Z" fill="#00509e" fill-rule="evenodd"/>
      <path id="Контур_7393" data-name="Контур 7393" d="M-1711.466,1436.22l.8-.728.728.8-.8.728Z" fill="#00509e" fill-rule="evenodd"/>
      <path id="Контур_7394" data-name="Контур 7394" d="M-1710.755,1437.831l.8-.728.71.8-.8.728Z" fill="#00509e" fill-rule="evenodd"/>
      <path id="Контур_7395" data-name="Контур 7395" d="M-1710.443,1434.123l.537-.468.485.52-.537.485Z" fill="#00509e" fill-rule="evenodd"/>
      <path id="Контур_7396" data-name="Контур 7396" d="M-1711.119,1432.547l.537-.485.468.537-.52.485Z" fill="#00509e" fill-rule="evenodd"/>
      <path id="Контур_7397" data-name="Контур 7397" d="M-1709.75,1435.718l.52-.485.485.537-.537.468Z" fill="#00509e" fill-rule="evenodd"/>
      <path id="Контур_7398" data-name="Контур 7398" d="M-1712.141,1434.522l.8-.71.71.8-.8.71Z" fill="#00509e" fill-rule="evenodd"/>
    </g>
    <path id="Контур_7399" data-name="Контур 7399" d="M-1696.444,1433.794l-.017.018-.017-.018a.863.863,0,0,0-.641-.225.929.929,0,0,0-.953,1.022v2.928h.571v-2.928c0-.416.278-.45.382-.45a.349.349,0,0,1,.242.086.487.487,0,0,1,.121.364v2.928h.572v-2.928c0-.416.277-.45.381-.45a.349.349,0,0,1,.243.086.487.487,0,0,1,.121.364v2.928h.572v-2.928a1.121,1.121,0,0,0-.277-.779.977.977,0,0,0-.676-.243A.894.894,0,0,0-1696.444,1433.794Z" fill="#00509e" fill-rule="evenodd"/>
    <path id="Контур_7400" data-name="Контур 7400" d="M-1692.233,1434.4a1.239,1.239,0,0,0-.936-.381,1.224,1.224,0,0,0-.918.381,1.7,1.7,0,0,0-.364,1.143,1.64,1.64,0,0,0,.364,1.144,1.224,1.224,0,0,0,.918.381,1.239,1.239,0,0,0,.936-.381,1.7,1.7,0,0,0,.363-1.144,1.8,1.8,0,0,0-.363-1.143Zm-.226,1.265a1.138,1.138,0,0,1-.208.814.681.681,0,0,1-.5.19.637.637,0,0,1-.485-.19,1.138,1.138,0,0,1-.208-.814v-.26a1.074,1.074,0,0,1,.208-.8.667.667,0,0,1,.485-.208.6.6,0,0,1,.5.208,1.094,1.094,0,0,1,.208.8Z" fill="#00509e" fill-rule="evenodd"/>
    <path id="Контур_7401" data-name="Контур 7401" d="M-1691.4,1434.115h.485v.26a1.4,1.4,0,0,1,.416-.226,1.126,1.126,0,0,1,.468-.086.909.909,0,0,1,.71.277,1.044,1.044,0,0,1,.243.745v1.941h-.537v-1.976a.532.532,0,0,0-.555-.606,1.074,1.074,0,0,0-.71.3v2.287h-.52v-2.911Z" fill="#00509e" fill-rule="evenodd"/>
    <path id="Контур_7402" data-name="Контур 7402" d="M-1686.464,1436.437a3.656,3.656,0,0,1-.346.138,1.291,1.291,0,0,1-.451.069.874.874,0,0,1-.658-.242.884.884,0,0,1-.208-.659v-.069h1.8v-.138a1.539,1.539,0,0,0-.312-1.161,1.131,1.131,0,0,0-.849-.347,1.185,1.185,0,0,0-.9.381,1.664,1.664,0,0,0-.329,1.092,1.738,1.738,0,0,0,.346,1.143,1.312,1.312,0,0,0,1.023.416,1.676,1.676,0,0,0,.693-.121c.121-.052.26-.121.364-.173l-.174-.329Zm-1.663-1.213a.936.936,0,0,1,.191-.624.607.607,0,0,1,.45-.191.605.605,0,0,1,.416.139.774.774,0,0,1,.19.606v.122h-1.23v-.052Z" fill="#00509e" fill-rule="evenodd"/>
    <path id="Контур_7403" data-name="Контур 7403" d="M-1683.432,1433.43l-1.143,3.448a1.452,1.452,0,0,1-.277.537.723.723,0,0,1-.572.243.949.949,0,0,1-.468-.121.913.913,0,0,1-.243-.191l.243-.312a1.252,1.252,0,0,0,.156.122.549.549,0,0,0,.277.069.389.389,0,0,0,.312-.156,1.445,1.445,0,0,0,.156-.364l.069-.225-1.23-3.05h.572l.728,1.837c.069.173.156.45.173.52h.017c.087-.347.139-.468.208-.693l.52-1.664Z" fill="#00509e" fill-rule="evenodd"/>
    <path id="Контур_7404" data-name="Контур 7404" d="M-1705.9,1437.293l.017-.017.018.017a.935.935,0,0,0,.641.225.938.938,0,0,0,.953-1.022v-2.928h-.589v2.928c0,.416-.278.451-.364.451a.285.285,0,0,1-.243-.087.465.465,0,0,1-.121-.364v-2.928h-.589v2.928c0,.416-.277.451-.381.451a.284.284,0,0,1-.243-.087.462.462,0,0,1-.121-.364v-2.928h-.589v2.928a1.079,1.079,0,0,0,.277.762.939.939,0,0,0,.676.26A.848.848,0,0,0-1705.9,1437.293Z" fill="#00509e" fill-rule="evenodd"/>
    <path id="Контур_7405" data-name="Контур 7405" d="M-1701.59,1436.437c-.086.034-.208.086-.329.138a1.29,1.29,0,0,1-.45.069.876.876,0,0,1-.659-.242.969.969,0,0,1-.208-.659v-.069h1.785v-.138a1.608,1.608,0,0,0-.295-1.161,1.142,1.142,0,0,0-.866-.347,1.175,1.175,0,0,0-.884.381,1.574,1.574,0,0,0-.329,1.092,1.644,1.644,0,0,0,.347,1.143,1.336,1.336,0,0,0,1.022.416,2.006,2.006,0,0,0,.693-.121,1.648,1.648,0,0,0,.347-.173l-.174-.329Zm-1.646-1.213a.936.936,0,0,1,.191-.624.537.537,0,0,1,.433-.191.547.547,0,0,1,.416.156.737.737,0,0,1,.191.607v.121h-1.231Z" fill="#00509e" fill-rule="evenodd"/>
    <path id="Контур_7406" data-name="Контур 7406" d="M-1698.956,1434.834a1.189,1.189,0,0,0-.8-.3,2.422,2.422,0,0,0-.381.035,1.7,1.7,0,0,0-.277.1v-1.144h-.52v3.708a2.06,2.06,0,0,0,1.091.312,1.2,1.2,0,0,0,1.023-.468,1.778,1.778,0,0,0,.294-1.074,1.616,1.616,0,0,0-.433-1.178Zm-.9.086a.759.759,0,0,1,.554.208,1.079,1.079,0,0,1,.191.763v.242a1.421,1.421,0,0,1-.156.8.7.7,0,0,1-.554.243,2.448,2.448,0,0,1-.347-.052.782.782,0,0,1-.242-.121v-1.906" fill="#00509e" fill-rule="evenodd"/>
  </g>
</svg>
