<svg xmlns="http://www.w3.org/2000/svg" width="25" height="25" viewBox="0 0 25 25">
  <path id="Контур_6499" data-name="Контур 6499" d="M21.435.5H4.943A4.267,4.267,0,0,0,.689,4.754V21.246A4.266,4.266,0,0,0,4.943,25.5H21.435a4.266,4.266,0,0,0,4.254-4.254V4.754A4.267,4.267,0,0,0,21.435.5Zm1.354,11.908A9.276,9.276,0,0,1,9.055,20.453L3.929,22.081,5.6,17.151a9.1,9.1,0,0,1-1.328-4.743,9.259,9.259,0,0,1,18.517,0Zm-9.26-7.723A7.762,7.762,0,0,0,5.746,12.41a7.641,7.641,0,0,0,1.483,4.528l-.972,2.868,2.99-.95a7.744,7.744,0,1,0,4.282-14.17Zm4.676,9.839c-.058-.093-.209-.149-.435-.263s-1.343-.657-1.551-.731-.36-.114-.512.112-.585.732-.718.884-.264.17-.491.058a6.256,6.256,0,0,1-1.826-1.118,6.772,6.772,0,0,1-1.262-1.56c-.134-.225-.014-.347.1-.459s.227-.263.341-.4a1.5,1.5,0,0,0,.227-.374.42.42,0,0,0-.019-.4c-.057-.113-.51-1.22-.7-1.671s-.378-.376-.51-.376-.284-.019-.435-.019a.831.831,0,0,0-.6.28,2.52,2.52,0,0,0-.794,1.878,4.354,4.354,0,0,0,.926,2.329,9.3,9.3,0,0,0,3.878,3.4c2.308.9,2.308.6,2.724.562A2.29,2.29,0,0,0,18.073,15.6,1.873,1.873,0,0,0,18.206,14.525Z" transform="translate(-0.689 -0.5)" fill="#fff" fill-rule="evenodd"/>
</svg>
