<svg xmlns="http://www.w3.org/2000/svg" width="35.115" height="14.58" viewBox="0 0 35.115 14.58">
  <g id="Сгруппировать_1010" data-name="Сгруппировать 1010" transform="translate(1768.257 -1404.042)">
    <g id="Сгруппировать_998" data-name="Сгруппировать 998">
      <path id="Контур_7408" data-name="Контур 7408" d="M-1768.257,1410.546c0-.738.06-1.2,1.586-2.344,1.262-.938,5.312-4.16,5.312-4.16v5.377h3.077v7.74h-9.012a.967.967,0,0,1-.963-.962v-5.651Z" fill="#ffc300" fill-rule="evenodd"/>
      <path id="Контур_7409" data-name="Контур 7409" d="M-1761.359,1409.419v3.117l-5.656,3.85,7.152-2.324v-4.643Z" fill="#d09b00" fill-rule="evenodd"/>
      <path id="Контур_7410" data-name="Контур 7410" d="M-1763.943,1409.259c.329-.394.813-.533,1.078-.309s.214.723-.12,1.117-.813.534-1.077.309-.215-.723.119-1.117Z" fill="#1a1718" fill-rule="evenodd"/>
    </g>
    <g id="Сгруппировать_999" data-name="Сгруппировать 999">
      <path id="Контур_7411" data-name="Контур 7411" d="M-1746.448,1407.59a2.312,2.312,0,0,0-1.111.4v-.255c0-.056-.022-.078-.078-.078h-.694a.08.08,0,0,0-.089.078v5.44c0,.056.022.09.078.09h.705a.08.08,0,0,0,.078-.09v-4.656a1.51,1.51,0,0,1,.725-.208c.379,0,.678.188.678.574v4.29a.082.082,0,0,0,.089.09h.694a.079.079,0,0,0,.078-.09v-4.534C-1745.3,1407.954-1745.715,1407.59-1746.448,1407.59Z" fill="#040506"/>
      <path id="Контур_7412" data-name="Контур 7412" d="M-1741.049,1404.861h-.694a.08.08,0,0,0-.09.078v2.745a2.038,2.038,0,0,0-.7-.157c-1.127,0-1.9,1.078-1.9,3.15,0,1.775.753,2.727,1.735,2.727a1.554,1.554,0,0,0,1.006-.46l.152.257a.1.1,0,0,0,.1.06h.4a.08.08,0,0,0,.078-.09v-8.232C-1740.971,1404.883-1740.993,1404.861-1741.049,1404.861Zm-2.472,5.633c0-1.142.334-2.273,1.017-2.273a1.049,1.049,0,0,1,.671.25v4.022a1.316,1.316,0,0,1-.618.179C-1743.193,1412.672-1743.521,1411.792-1743.521,1410.494Z" fill="#040506"/>
      <path id="Контур_7413" data-name="Контур 7413" d="M-1738.39,1407.539c-1.156,0-1.727,1.512-1.727,3.157,0,1.722.814,2.688,1.86,2.688a2.644,2.644,0,0,0,1.218-.348.084.084,0,0,0,.043-.106l-.088-.364a.077.077,0,0,0-.089-.067,3.7,3.7,0,0,1-.772.111c-.856,0-1.249-.761-1.249-1.772v-.245a6.644,6.644,0,0,0,.681.058h1.615v-.466C-1736.9,1408.461-1737.5,1407.539-1738.39,1407.539Zm-.056,2.412c-.256,0-.721.063-.721.063s.006-.185.029-.363c.1-.945.325-1.423.714-1.423.338,0,.57.489.626,1.345.011.178.011.378.011.378Z" fill="#040506"/>
      <path id="Контур_7414" data-name="Контур 7414" d="M-1749.739,1408.245a1.307,1.307,0,0,0-1.237-.726,3.461,3.461,0,0,0-1.212.286c-.069.031-.112.058-.112.112a.234.234,0,0,0,.033.1l.237.505a.1.1,0,0,0,.095.07.175.175,0,0,0,.1-.036,1.674,1.674,0,0,1,.791-.339.6.6,0,0,1,.55.436,2.6,2.6,0,0,1,.142.97v.115a1.764,1.764,0,0,0-.775-.21c-1,0-1.543.953-1.543,1.972,0,1.1.632,1.9,1.391,1.9a1.426,1.426,0,0,0,1.063-.561s.136.325.154.364a.08.08,0,0,0,.088.054h.406a.08.08,0,0,0,.078-.09v-3.155A4.161,4.161,0,0,0-1749.739,1408.245Zm-.618,4.135a.964.964,0,0,1-.651.292.607.607,0,0,1-.512-.282,1.652,1.652,0,0,1-.237-.947c0-.6.222-1.22.693-1.22a1.138,1.138,0,0,1,.707.25Z" fill="#040506"/>
      <path id="Контур_7415" data-name="Контур 7415" d="M-1733.232,1407.652h-.619a.121.121,0,0,0-.122.083c-.039.1-.3.792-.408,1.077-.076.2-.282.787-.282.787h-.024s-.152-.424-.233-.636c-.066-.171-.411-1.079-.455-1.191-.023-.06-.049-.12-.138-.12h-.677a.1.1,0,0,0-.092.133c.024.05,1.1,2.508,1.1,2.508s-1.159,2.753-1.193,2.814a.106.106,0,0,0,.091.154h.594c.1,0,.141-.053.171-.139.085-.239.212-.571.392-1.084.119-.341.308-.938.308-.938h.021s.206.609.283.808c.194.5.442,1.161.468,1.23s.066.123.135.123h.673c.067,0,.1-.076.066-.143-.075-.157-.714-1.711-1.158-2.732,0,0,1.152-2.542,1.175-2.6S-1733.137,1407.652-1733.232,1407.652Z" fill="#040506"/>
      <path id="Контур_7416" data-name="Контур 7416" d="M-1751.974,1404.042h-.781a.111.111,0,0,0-.122.083c-.01.05-1.17,3.587-1.254,3.882-.06.209-.255.945-.3,1.122l-.4-1.1c-.1-.3-1.038-2.929-1.065-3.034-.016-.057-.042-.129-.143-.129h-.762a.1.1,0,0,0-.093.132c.02.041,1.4,3.7,1.951,5.1v3.074c0,.056.023.09.079.09h.721a.081.081,0,0,0,.079-.09v-3.05c.463-1.294,2.155-5.9,2.174-5.949S-1751.879,1404.042-1751.974,1404.042Z" fill="#db0617"/>
    </g>
    <g id="Сгруппировать_1000" data-name="Сгруппировать 1000">
      <path id="Контур_7417" data-name="Контур 7417" d="M-1754.8,1414.873c0-.326-.007-.594-.026-.856h.5l.025.51h.02a1.088,1.088,0,0,1,.993-.581.935.935,0,0,1,.9.633h.013a1.287,1.287,0,0,1,.352-.411,1.08,1.08,0,0,1,.7-.222c.418,0,1.038.274,1.038,1.371v1.861h-.561v-1.789c0-.607-.222-.973-.686-.973a.744.744,0,0,0-.679.522.948.948,0,0,0-.046.287v1.953h-.562v-1.893c0-.5-.222-.869-.659-.869a.785.785,0,0,0-.712.575.785.785,0,0,0-.046.28v1.907h-.561Z" fill="#dd1a1e"/>
      <path id="Контур_7418" data-name="Контур 7418" d="M-1745.688,1415.572a1.545,1.545,0,0,1-1.573,1.679,1.5,1.5,0,0,1-1.516-1.627,1.544,1.544,0,0,1,1.568-1.678A1.5,1.5,0,0,1-1745.688,1415.572Zm-2.508.032c0,.693.4,1.215.96,1.215s.961-.516.961-1.227c0-.536-.268-1.215-.947-1.215S-1748.2,1415-1748.2,1415.6Z" fill="#dd1a1e"/>
      <path id="Контур_7419" data-name="Контур 7419" d="M-1744.157,1414.873c0-.326-.007-.594-.026-.856h.509l.033.523h.013a1.163,1.163,0,0,1,1.045-.594c.437,0,1.116.261,1.116,1.345v1.887h-.574v-1.822c0-.509-.19-.933-.732-.933a.814.814,0,0,0-.77.587.806.806,0,0,0-.039.268v1.9h-.575Z" fill="#dd1a1e"/>
      <path id="Контур_7420" data-name="Контур 7420" d="M-1739.407,1415.7a1.013,1.013,0,0,0,1.084,1.1,2.069,2.069,0,0,0,.875-.164l.1.412a2.567,2.567,0,0,1-1.052.2,1.468,1.468,0,0,1-1.554-1.594,1.535,1.535,0,0,1,1.483-1.7,1.339,1.339,0,0,1,1.306,1.488,2.106,2.106,0,0,1-.02.269Zm1.685-.412a.819.819,0,0,0-.8-.934.953.953,0,0,0-.882.934Z" fill="#dd1a1e"/>
      <path id="Контур_7421" data-name="Контур 7421" d="M-1735.487,1414.017l.692,1.868c.072.209.15.457.2.647h.013c.059-.19.124-.431.2-.66l.627-1.855h.607l-.862,2.253a4.809,4.809,0,0,1-1.084,1.98,1.565,1.565,0,0,1-.7.372l-.144-.484a1.513,1.513,0,0,0,.5-.28,1.744,1.744,0,0,0,.483-.641.39.39,0,0,0,.046-.136.5.5,0,0,0-.039-.151l-1.169-2.913Z" fill="#dd1a1e"/>
    </g>
  </g>
</svg>
